<svg width="167" height="34" viewBox="0 0 167 34" fill="none" xmlns="http://www.w3.org/2000/svg">
<path d="M8.34475 0H12.564C13.4756 0 13.9947 0.709355 13.7231 1.58304L8.28135 19.073H17.7381V0.829373C17.7381 0.371669 18.1078 0 18.5635 0H23.5183C23.974 0 24.3441 0.371669 24.3441 0.829373V33.1706C24.3441 33.6283 23.974 34 23.5183 34H18.5635C18.1078 34 17.7381 33.6283 17.7381 33.1706V24.8782H1.22253C0.310991 24.8782 -0.202603 24.1706 0.0758257 23.299L7.26701 0.789367C7.40622 0.353602 7.88898 0 8.34475 0Z" fill="white"/>
<path d="M67.8791 0H72.1277C73.0455 0 73.5683 0.709355 73.2949 1.58304L67.8153 19.073H77.3377V0.829373C77.3377 0.371669 77.7099 0 78.1688 0H83.158C83.6169 0 83.9895 0.371669 83.9895 0.829373V33.1706C83.9895 33.6283 83.6169 34 83.158 34H78.1688C77.7099 34 77.3377 33.6283 77.3377 33.1706V24.8782H60.7075C59.7897 24.8782 59.2725 24.1705 59.5529 23.299L66.7939 0.789367C66.9341 0.353602 67.4202 0 67.8791 0Z" fill="#0047BB"/>
<path d="M59.103 28.3701H63.3516C64.2694 28.3701 64.7874 29.0782 64.5079 29.9501L63.4887 33.1274C63.3343 33.6092 62.7969 34.0002 62.2896 34.0002H58.1028C57.1849 34.0002 56.6699 33.2934 56.9533 32.4228L58.0152 29.1591C58.1567 28.7237 58.6441 28.3701 59.103 28.3701Z" fill="#0047BB"/>
<path d="M118.546 2.72396V6.23113C118.546 6.73228 118.944 7.08129 119.433 7.0097L123.219 6.45571V28.4149H118.882C118.434 28.4149 118.071 28.7831 118.071 29.2366V33.1784C118.071 33.6318 118.434 34 118.882 34H133.815C134.262 34 134.625 33.6318 134.625 33.1784V29.2366C134.625 28.7831 134.262 28.4149 133.815 28.4149H129.791V1.36328C129.791 0.456446 129.078 -0.141435 128.199 0.0290228L119.342 1.74766C118.903 1.83332 118.546 2.27054 118.546 2.72396Z" fill="#009CDE"/>
<path d="M150.498 0H154.746C155.664 0 156.187 0.709355 155.913 1.58304L150.434 19.0734H159.956V0.829373C159.956 0.371669 160.329 0 160.788 0H165.777C166.236 0 166.608 0.371669 166.608 0.829373V33.1706C166.608 33.6283 166.236 34 165.777 34H160.788C160.329 34 159.956 33.6283 159.956 33.1706V24.8782H143.326C142.408 24.8782 141.891 24.1705 142.171 23.299L149.412 0.789797C149.552 0.354032 150.039 0 150.498 0Z" fill="#0047BB"/>
<path d="M141.722 28.3701H145.97C146.888 28.3701 147.406 29.0778 147.127 29.9497L146.107 33.127C145.953 33.6088 145.416 33.9998 144.908 33.9998H140.721C139.804 33.9998 139.289 33.293 139.572 32.4223L140.633 29.1586C140.775 28.7233 141.263 28.3701 141.722 28.3701Z" fill="#0047BB"/>
<path d="M29.2183 25.6713C29.0605 30.673 32.3904 34.0432 40.6476 33.9652C47.9945 34.3467 51.8051 31.5902 52.0067 25.6713V22.6003C52.0067 22.1537 51.643 21.7911 51.1952 21.7911H46.3269C45.8791 21.7911 45.5159 22.1537 45.5159 22.6003V25.6713C45.2221 27.1874 44.4864 28.0958 43.2844 28.372C41.3467 28.7036 39.59 28.7279 38.1312 28.372C36.8029 28.2154 36.0268 27.3234 35.7793 25.6713V8.29432C35.9254 7.24452 36.5163 6.71983 37.1232 6.2963C38.4355 5.46183 42.1624 5.23432 43.9119 6.2963C44.4187 6.61741 45.2053 7.11188 45.5159 8.29432V10.9493C45.5159 11.3959 45.8791 11.7585 46.3269 11.7585H51.1952C51.643 11.7585 52.0067 11.3959 52.0067 10.9493V8.29432C51.6628 2.84131 47.8686 0.0684198 40.6476 0C33.1661 0.0570864 29.3648 2.82998 29.2183 8.29432V25.6713Z" fill="#009CDE"/>
<path d="M113.198 25.4304C113.36 30.3857 109.252 34.0698 100.761 33.9924C100.566 34.0021 96.8764 34.0025 89.6928 33.9936C89.2323 33.9928 88.8583 33.6208 88.8583 33.1632V20.454C88.8583 20.0041 89.2262 19.639 89.6789 19.639H94.7128C95.1655 19.639 95.533 20.0041 95.533 20.454V23.4826V27.8904C95.533 28.1515 95.7463 28.3635 96.0095 28.3635H102.423C104.017 28.2418 106.135 27.183 106.204 25.1379V8.2166C105.899 6.76467 104.706 5.87785 102.599 5.53164H95.533V15.0346C95.533 15.4845 95.1655 15.8496 94.7128 15.8496H89.6789C89.2262 15.8496 88.8583 15.4845 88.8583 15.0346V0C92.1343 0.0450146 96.2475 0.0450146 101.198 0C108.891 0.05677 113.047 2.67034 113.198 8.08371V25.4304Z" fill="#6AD1E3"/>
</svg>
