<svg width="424" height="229" viewBox="0 0 424 229" fill="none" xmlns="http://www.w3.org/2000/svg">
<g clip-path="url(#clip0)">
<path opacity="0.1" d="M424 146.985C424.005 153.206 423.151 159.397 421.461 165.384C419.828 171.156 417.426 176.681 414.319 181.81C414.319 200.395 401.784 216.458 383.59 224.099C375.988 227.261 367.832 228.875 359.599 228.848H80.4896C65.5717 228.848 51.7473 224.819 40.4097 217.956C37.165 216.001 34.087 213.782 31.207 211.32C18.6056 200.481 10.7927 185.501 10.7927 168.956C3.72042 158.057 -0.029639 145.332 -8.86774e-06 132.335C-8.86774e-06 105.122 16.0816 81.7219 39.1199 71.3907C42.1792 70.0195 45.3403 68.8884 48.5747 68.0076C49.7187 67.696 50.875 67.4165 52.0438 67.1692C55.1593 66.5052 58.3194 66.0712 61.4985 65.8709C62.6475 65.7992 63.8026 65.7583 64.9639 65.7485H65.6014C66.8838 65.7485 68.155 65.793 69.4189 65.8672L69.834 65.1623C70.343 64.3116 70.8643 63.4695 71.398 62.6361C72.3617 61.1177 73.3723 59.6215 74.4298 58.1475C75.5367 56.592 76.6919 55.0611 77.8952 53.5551L78.2028 53.1841C78.8847 52.3334 79.5815 51.4925 80.2931 50.6616C82.5169 48.0674 84.8642 45.551 87.3351 43.1126C114.061 16.8932 155.931 0.0146484 203.001 0.0146484C239.627 0.0146484 273.106 10.2345 298.749 27.1206C308.464 21.618 319.439 18.7307 330.601 18.7406C366.827 18.7406 396.203 48.5545 396.203 85.3314C396.197 87.6583 396.074 89.9835 395.832 92.2979C404.564 98.4848 411.682 106.683 416.584 116.201C421.486 125.718 424.03 136.277 424 146.985V146.985Z" fill="#A740A8"/>
<path opacity="0.2" d="M87.3425 43.0979V50.6469H80.3005C82.507 48.0551 84.8543 45.5388 87.3425 43.0979Z" fill="#A740A8"/>
<path opacity="0.2" d="M100.266 41.1838H90.8116V50.647H100.266V41.1838Z" fill="#A740A8"/>
<path opacity="0.2" d="M113.187 41.1838H103.732V50.647H113.187V41.1838Z" fill="#A740A8"/>
<path opacity="0.2" d="M126.11 41.1838H116.656V50.647H126.11V41.1838Z" fill="#A740A8"/>
<path opacity="0.2" d="M139.03 41.1838H129.576V50.647H139.03V41.1838Z" fill="#A740A8"/>
<path opacity="0.2" d="M151.954 41.1838H142.5V50.647H151.954V41.1838Z" fill="#A740A8"/>
<path d="M164.878 41.1838H155.423V50.647H164.878V41.1838Z" fill="#A740A8"/>
<path opacity="0.2" d="M177.798 41.1838H168.344V50.647H177.798V41.1838Z" fill="#A740A8"/>
<path opacity="0.2" d="M190.722 41.1838H181.267V50.647H190.722V41.1838Z" fill="#A740A8"/>
<path opacity="0.2" d="M203.642 41.1838H194.188V50.647H203.642V41.1838Z" fill="#A740A8"/>
<path d="M216.566 41.1838H207.111V50.647H216.566V41.1838Z" fill="#A740A8"/>
<path opacity="0.2" d="M229.49 41.1838H220.035V50.647H229.49V41.1838Z" fill="#A740A8"/>
<path opacity="0.2" d="M242.41 41.1838H232.955V50.647H242.41V41.1838Z" fill="#A740A8"/>
<path opacity="0.2" d="M255.334 41.1838H245.879V50.647H255.334V41.1838Z" fill="#A740A8"/>
<path opacity="0.2" d="M268.258 41.1838H258.803V50.647H268.258V41.1838Z" fill="#A740A8"/>
<path opacity="0.2" d="M281.178 41.1838H271.723V50.647H281.178V41.1838Z" fill="#A740A8"/>
<path opacity="0.2" d="M294.102 41.1838H284.647V50.647H294.102V41.1838Z" fill="#A740A8"/>
<path d="M307.022 41.1838H297.567V50.647H307.022V41.1838Z" fill="#A740A8"/>
<path d="M319.946 41.1838H310.491V50.647H319.946V41.1838Z" fill="#A740A8"/>
<path opacity="0.2" d="M332.87 41.1838H323.415V50.647H332.87V41.1838Z" fill="#A740A8"/>
<path opacity="0.2" d="M345.79 41.1838H336.335V50.647H345.79V41.1838Z" fill="#A740A8"/>
<path d="M358.714 41.1838H349.259V50.647H358.714V41.1838Z" fill="#A740A8"/>
<path d="M371.634 41.1838H362.179V50.647H371.634V41.1838Z" fill="#A740A8"/>
<path d="M74.4224 58.144V62.6326H71.3906C72.3543 61.1043 73.3648 59.6081 74.4224 58.144Z" fill="#A740A8"/>
<path opacity="0.2" d="M87.3425 53.1694H77.8878V62.6326H87.3425V53.1694Z" fill="#A740A8"/>
<path d="M100.266 53.1694H90.8116V62.6326H100.266V53.1694Z" fill="#A740A8"/>
<path opacity="0.2" d="M113.187 53.1694H103.732V62.6326H113.187V53.1694Z" fill="#A740A8"/>
<path opacity="0.7" d="M126.11 53.1694H116.656V62.6326H126.11V53.1694Z" fill="#A740A8"/>
<path opacity="0.2" d="M139.03 53.1694H129.576V62.6326H139.03V53.1694Z" fill="#A740A8"/>
<path opacity="0.4" d="M151.954 53.1694H142.5V62.6326H151.954V53.1694Z" fill="#A740A8"/>
<path d="M164.878 53.1694H155.423V62.6326H164.878V53.1694Z" fill="#A740A8"/>
<path opacity="0.4" d="M177.798 53.1694H168.344V62.6326H177.798V53.1694Z" fill="#A740A8"/>
<path opacity="0.2" d="M190.722 53.1694H181.267V62.6326H190.722V53.1694Z" fill="#A740A8"/>
<path opacity="0.4" d="M203.642 53.1694H194.188V62.6326H203.642V53.1694Z" fill="#A740A8"/>
<path d="M216.566 53.1694H207.111V62.6326H216.566V53.1694Z" fill="#A740A8"/>
<path opacity="0.4" d="M229.49 53.1694H220.035V62.6326H229.49V53.1694Z" fill="#A740A8"/>
<path opacity="0.4" d="M242.41 53.1694H232.955V62.6326H242.41V53.1694Z" fill="#A740A8"/>
<path opacity="0.2" d="M255.334 53.1694H245.879V62.6326H255.334V53.1694Z" fill="#A740A8"/>
<path opacity="0.4" d="M268.258 53.1694H258.803V62.6326H268.258V53.1694Z" fill="#A740A8"/>
<path opacity="0.4" d="M281.178 53.1694H271.723V62.6326H281.178V53.1694Z" fill="#A740A8"/>
<path opacity="0.2" d="M294.102 53.1694H284.647V62.6326H294.102V53.1694Z" fill="#A740A8"/>
<path opacity="0.2" d="M307.022 53.1694H297.567V62.6326H307.022V53.1694Z" fill="#A740A8"/>
<path opacity="0.4" d="M319.946 53.1694H310.491V62.6326H319.946V53.1694Z" fill="#A740A8"/>
<path opacity="0.2" d="M332.87 53.1694H323.415V62.6326H332.87V53.1694Z" fill="#A740A8"/>
<path d="M345.79 53.1694H336.335V62.6326H345.79V53.1694Z" fill="#A740A8"/>
<path d="M358.714 53.1694H349.259V62.6326H358.714V53.1694Z" fill="#A740A8"/>
<path d="M371.634 53.1694H362.179V62.6326H371.634V53.1694Z" fill="#A740A8"/>
<path opacity="0.2" d="M48.5747 68.0078V74.622H39.1199V71.391C42.1792 70.0197 45.3403 68.8886 48.5747 68.0078V68.0078Z" fill="#A740A8"/>
<path opacity="0.2" d="M61.4985 65.8711V74.622H52.0438V67.1694L61.4985 65.8711Z" fill="#A740A8"/>
<path d="M74.4186 65.1589H64.9639V74.6221H74.4186V65.1589Z" fill="#A740A8"/>
<path opacity="0.7" d="M87.3425 65.1589H77.8878V74.6221H87.3425V65.1589Z" fill="#A740A8"/>
<path d="M100.266 65.1589H90.8116V74.6221H100.266V65.1589Z" fill="#A740A8"/>
<path opacity="0.7" d="M113.187 65.1589H103.732V74.6221H113.187V65.1589Z" fill="#A740A8"/>
<path opacity="0.7" d="M126.11 65.1589H116.656V74.6221H126.11V65.1589Z" fill="#A740A8"/>
<path opacity="0.2" d="M139.03 65.1589H129.576V74.6221H139.03V65.1589Z" fill="#A740A8"/>
<path opacity="0.4" d="M151.954 65.1589H142.5V74.6221H151.954V65.1589Z" fill="#A740A8"/>
<path opacity="0.4" d="M164.878 65.1589H155.423V74.6221H164.878V65.1589Z" fill="#A740A8"/>
<path d="M177.798 65.1589H168.344V74.6221H177.798V65.1589Z" fill="#A740A8"/>
<path opacity="0.2" d="M190.722 65.1589H181.267V74.6221H190.722V65.1589Z" fill="#A740A8"/>
<path opacity="0.4" d="M203.642 65.1589H194.188V74.6221H203.642V65.1589Z" fill="#A740A8"/>
<path d="M216.566 65.1589H207.111V74.6221H216.566V65.1589Z" fill="#A740A8"/>
<path opacity="0.2" d="M229.49 65.1589H220.035V74.6221H229.49V65.1589Z" fill="#A740A8"/>
<path opacity="0.4" d="M242.41 65.1589H232.955V74.6221H242.41V65.1589Z" fill="#A740A8"/>
<path opacity="0.2" d="M255.334 65.1589H245.879V74.6221H255.334V65.1589Z" fill="#A740A8"/>
<path d="M268.258 65.1589H258.803V74.6221H268.258V65.1589Z" fill="#A740A8"/>
<path opacity="0.2" d="M281.178 65.1589H271.723V74.6221H281.178V65.1589Z" fill="#A740A8"/>
<path opacity="0.7" d="M294.102 65.1589H284.647V74.6221H294.102V65.1589Z" fill="#A740A8"/>
<path opacity="0.7" d="M307.022 65.1589H297.567V74.6221H307.022V65.1589Z" fill="#A740A8"/>
<path opacity="0.4" d="M319.946 65.1589H310.491V74.6221H319.946V65.1589Z" fill="#A740A8"/>
<path opacity="0.2" d="M332.87 65.1589H323.415V74.6221H332.87V65.1589Z" fill="#A740A8"/>
<path d="M345.79 65.1589H336.335V74.6221H345.79V65.1589Z" fill="#A740A8"/>
<path d="M358.714 65.1589H349.259V74.6221H358.714V65.1589Z" fill="#A740A8"/>
<path d="M371.634 65.1589H362.179V74.6221H371.634V65.1589Z" fill="#A740A8"/>
<path opacity="0.2" d="M48.5747 77.1445H39.1199V86.6077H48.5747V77.1445Z" fill="#A740A8"/>
<path opacity="0.2" d="M61.4985 77.1445H52.0438V86.6077H61.4985V77.1445Z" fill="#A740A8"/>
<path opacity="0.2" d="M74.4186 77.1445H64.9639V86.6077H74.4186V77.1445Z" fill="#A740A8"/>
<path opacity="0.2" d="M87.3425 77.1445H77.8878V86.6077H87.3425V77.1445Z" fill="#A740A8"/>
<path d="M100.266 77.1445H90.8116V86.6077H100.266V77.1445Z" fill="#A740A8"/>
<path opacity="0.7" d="M113.187 77.1445H103.732V86.6077H113.187V77.1445Z" fill="#A740A8"/>
<path opacity="0.7" d="M126.11 77.1445H116.656V86.6077H126.11V77.1445Z" fill="#A740A8"/>
<path opacity="0.2" d="M139.03 77.1445H129.576V86.6077H139.03V77.1445Z" fill="#A740A8"/>
<path opacity="0.2" d="M151.954 77.1445H142.5V86.6077H151.954V77.1445Z" fill="#A740A8"/>
<path opacity="0.4" d="M164.878 77.1445H155.423V86.6077H164.878V77.1445Z" fill="#A740A8"/>
<path opacity="0.4" d="M177.798 77.1445H168.344V86.6077H177.798V77.1445Z" fill="#A740A8"/>
<path d="M190.722 77.1445H181.267V86.6077H190.722V77.1445Z" fill="#A740A8"/>
<path opacity="0.2" d="M203.642 77.1445H194.188V86.6077H203.642V77.1445Z" fill="#A740A8"/>
<path opacity="0.4" d="M216.566 77.1445H207.111V86.6077H216.566V77.1445Z" fill="#A740A8"/>
<path opacity="0.4" d="M229.49 77.1445H220.035V86.6077H229.49V77.1445Z" fill="#A740A8"/>
<path opacity="0.4" d="M242.41 77.1445H232.955V86.6077H242.41V77.1445Z" fill="#A740A8"/>
<path opacity="0.4" d="M255.334 77.1445H245.879V86.6077H255.334V77.1445Z" fill="#A740A8"/>
<path opacity="0.2" d="M268.258 77.1445H258.803V86.6077H268.258V77.1445Z" fill="#A740A8"/>
<path opacity="0.2" d="M281.178 77.1445H271.723V86.6077H281.178V77.1445Z" fill="#A740A8"/>
<path opacity="0.2" d="M294.102 77.1445H284.647V86.6077H294.102V77.1445Z" fill="#A740A8"/>
<path opacity="0.2" d="M307.022 77.1445H297.567V86.6077H307.022V77.1445Z" fill="#A740A8"/>
<path opacity="0.7" d="M319.946 77.1445H310.491V86.6077H319.946V77.1445Z" fill="#A740A8"/>
<path opacity="0.7" d="M332.87 77.1445H323.415V86.6077H332.87V77.1445Z" fill="#A740A8"/>
<path opacity="0.4" d="M345.79 77.1445H336.335V86.6077H345.79V77.1445Z" fill="#A740A8"/>
<path opacity="0.2" d="M358.714 77.1445H349.259V86.6077H358.714V77.1445Z" fill="#A740A8"/>
<path d="M371.634 77.1445H362.179V86.6077H371.634V77.1445Z" fill="#A740A8"/>
<path opacity="0.2" d="M48.5747 89.1338H39.1199V98.5969H48.5747V89.1338Z" fill="#A740A8"/>
<path opacity="0.2" d="M61.4985 89.1338H52.0438V98.5969H61.4985V89.1338Z" fill="#A740A8"/>
<path opacity="0.4" d="M74.4186 89.1338H64.9639V98.5969H74.4186V89.1338Z" fill="#A740A8"/>
<path opacity="0.2" d="M87.3425 89.1338H77.8878V98.5969H87.3425V89.1338Z" fill="#A740A8"/>
<path opacity="0.2" d="M100.266 89.1338H90.8116V98.5969H100.266V89.1338Z" fill="#A740A8"/>
<path opacity="0.7" d="M113.187 89.1338H103.732V98.5969H113.187V89.1338Z" fill="#A740A8"/>
<path opacity="0.7" d="M126.11 89.1338H116.656V98.5969H126.11V89.1338Z" fill="#A740A8"/>
<path opacity="0.2" d="M139.03 89.1338H129.576V98.5969H139.03V89.1338Z" fill="#A740A8"/>
<path opacity="0.2" d="M151.954 89.1338H142.5V98.5969H151.954V89.1338Z" fill="#A740A8"/>
<path opacity="0.4" d="M164.878 89.1338H155.423V98.5969H164.878V89.1338Z" fill="#A740A8"/>
<path d="M177.798 89.1338H168.344V98.5969H177.798V89.1338Z" fill="#A740A8"/>
<path opacity="0.2" d="M190.722 89.1338H181.267V98.5969H190.722V89.1338Z" fill="#A740A8"/>
<path d="M203.642 89.1338H194.188V98.5969H203.642V89.1338Z" fill="#A740A8"/>
<path d="M216.566 89.1338H207.111V98.5969H216.566V89.1338Z" fill="#A740A8"/>
<path d="M229.49 89.1338H220.035V98.5969H229.49V89.1338Z" fill="#A740A8"/>
<path opacity="0.2" d="M242.41 89.1338H232.955V98.5969H242.41V89.1338Z" fill="#A740A8"/>
<path d="M255.334 89.1338H245.879V98.5969H255.334V89.1338Z" fill="#A740A8"/>
<path opacity="0.2" d="M268.258 89.1338H258.803V98.5969H268.258V89.1338Z" fill="#A740A8"/>
<path opacity="0.2" d="M281.178 89.1338H271.723V98.5969H281.178V89.1338Z" fill="#A740A8"/>
<path opacity="0.2" d="M294.102 89.1338H284.647V98.5969H294.102V89.1338Z" fill="#A740A8"/>
<path opacity="0.2" d="M307.022 89.1338H297.567V98.5969H307.022V89.1338Z" fill="#A740A8"/>
<path opacity="0.2" d="M319.946 89.1338H310.491V98.5969H319.946V89.1338Z" fill="#A740A8"/>
<path opacity="0.7" d="M332.87 89.1338H323.415V98.5969H332.87V89.1338Z" fill="#A740A8"/>
<path opacity="0.2" d="M345.79 89.1338H336.335V98.5969H345.79V89.1338Z" fill="#A740A8"/>
<path opacity="0.2" d="M358.714 89.1338H349.259V98.5969H358.714V89.1338Z" fill="#A740A8"/>
<path d="M371.634 89.1338H362.179V98.5969H371.634V89.1338Z" fill="#A740A8"/>
<path opacity="0.2" d="M48.5747 101.119H39.1199V110.583H48.5747V101.119Z" fill="#A740A8"/>
<path opacity="0.2" d="M61.4985 101.119H52.0438V110.583H61.4985V101.119Z" fill="#A740A8"/>
<path opacity="0.2" d="M74.4186 101.119H64.9639V110.583H74.4186V101.119Z" fill="#A740A8"/>
<path opacity="0.4" d="M87.3425 101.119H77.8878V110.583H87.3425V101.119Z" fill="#A740A8"/>
<path opacity="0.2" d="M100.266 101.119H90.8116V110.583H100.266V101.119Z" fill="#A740A8"/>
<path opacity="0.2" d="M113.187 101.119H103.732V110.583H113.187V101.119Z" fill="#A740A8"/>
<path opacity="0.7" d="M126.11 101.119H116.656V110.583H126.11V101.119Z" fill="#A740A8"/>
<path opacity="0.2" d="M139.03 101.119H129.576V110.583H139.03V101.119Z" fill="#A740A8"/>
<path opacity="0.2" d="M151.954 101.119H142.5V110.583H151.954V101.119Z" fill="#A740A8"/>
<path opacity="0.2" d="M164.878 101.119H155.423V110.583H164.878V101.119Z" fill="#A740A8"/>
<path d="M177.798 101.119H168.344V110.583H177.798V101.119Z" fill="#A740A8"/>
<path opacity="0.2" d="M190.722 101.119H181.267V110.583H190.722V101.119Z" fill="#A740A8"/>
<path d="M203.642 101.119H194.188V110.583H203.642V101.119Z" fill="#A740A8"/>
<path d="M216.566 101.119H207.111V110.583H216.566V101.119Z" fill="#A740A8"/>
<path opacity="0.2" d="M229.49 101.119H220.035V110.583H229.49V101.119Z" fill="#A740A8"/>
<path opacity="0.2" d="M242.41 101.119H232.955V110.583H242.41V101.119Z" fill="#A740A8"/>
<path opacity="0.2" d="M255.334 101.119H245.879V110.583H255.334V101.119Z" fill="#A740A8"/>
<path opacity="0.2" d="M268.258 101.119H258.803V110.583H268.258V101.119Z" fill="#A740A8"/>
<path opacity="0.2" d="M281.178 101.119H271.723V110.583H281.178V101.119Z" fill="#A740A8"/>
<path opacity="0.2" d="M294.102 101.119H284.647V110.583H294.102V101.119Z" fill="#A740A8"/>
<path opacity="0.2" d="M307.022 101.119H297.567V110.583H307.022V101.119Z" fill="#A740A8"/>
<path opacity="0.2" d="M319.946 101.119H310.491V110.583H319.946V101.119Z" fill="#A740A8"/>
<path opacity="0.2" d="M332.87 101.119H323.415V110.583H332.87V101.119Z" fill="#A740A8"/>
<path opacity="0.2" d="M345.79 101.119H336.335V110.583H345.79V101.119Z" fill="#A740A8"/>
<path opacity="0.4" d="M358.714 101.119H349.259V110.583H358.714V101.119Z" fill="#A740A8"/>
<path d="M371.634 101.119H362.179V110.583H371.634V101.119Z" fill="#A740A8"/>
<path opacity="0.7" d="M48.5747 113.109H39.1199V122.572H48.5747V113.109Z" fill="#A740A8"/>
<path opacity="0.7" d="M61.4985 113.109H52.0438V122.572H61.4985V113.109Z" fill="#A740A8"/>
<path opacity="0.7" d="M74.4186 113.109H64.9639V122.572H74.4186V113.109Z" fill="#A740A8"/>
<path opacity="0.7" d="M87.3425 113.109H77.8878V122.572H87.3425V113.109Z" fill="#A740A8"/>
<path opacity="0.7" d="M100.266 113.109H90.8116V122.572H100.266V113.109Z" fill="#A740A8"/>
<path opacity="0.2" d="M113.187 113.109H103.732V122.572H113.187V113.109Z" fill="#A740A8"/>
<path opacity="0.2" d="M126.11 113.109H116.656V122.572H126.11V113.109Z" fill="#A740A8"/>
<path opacity="0.2" d="M139.03 113.109H129.576V122.572H139.03V113.109Z" fill="#A740A8"/>
<path opacity="0.2" d="M151.954 113.109H142.5V122.572H151.954V113.109Z" fill="#A740A8"/>
<path opacity="0.2" d="M164.878 113.109H155.423V122.572H164.878V113.109Z" fill="#A740A8"/>
<path opacity="0.2" d="M177.798 113.109H168.344V122.572H177.798V113.109Z" fill="#A740A8"/>
<path d="M190.722 113.109H181.267V122.572H190.722V113.109Z" fill="#A740A8"/>
<path opacity="0.2" d="M203.642 113.109H194.188V122.572H203.642V113.109Z" fill="#A740A8"/>
<path opacity="0.2" d="M216.566 113.109H207.111V122.572H216.566V113.109Z" fill="#A740A8"/>
<path opacity="0.2" d="M229.49 113.109H220.035V122.572H229.49V113.109Z" fill="#A740A8"/>
<path d="M242.41 113.109H232.955V122.572H242.41V113.109Z" fill="#A740A8"/>
<path opacity="0.2" d="M255.334 113.109H245.879V122.572H255.334V113.109Z" fill="#A740A8"/>
<path opacity="0.2" d="M268.258 113.109H258.803V122.572H268.258V113.109Z" fill="#A740A8"/>
<path opacity="0.2" d="M281.178 113.109H271.723V122.572H281.178V113.109Z" fill="#A740A8"/>
<path opacity="0.2" d="M294.102 113.109H284.647V122.572H294.102V113.109Z" fill="#A740A8"/>
<path opacity="0.2" d="M307.022 113.109H297.567V122.572H307.022V113.109Z" fill="#A740A8"/>
<path opacity="0.2" d="M319.946 113.109H310.491V122.572H319.946V113.109Z" fill="#A740A8"/>
<path opacity="0.2" d="M332.87 113.109H323.415V122.572H332.87V113.109Z" fill="#A740A8"/>
<path opacity="0.2" d="M345.79 113.109H336.335V122.572H345.79V113.109Z" fill="#A740A8"/>
<path opacity="0.2" d="M358.714 113.109H349.259V122.572H358.714V113.109Z" fill="#A740A8"/>
<path d="M371.634 113.109H362.179V122.572H371.634V113.109Z" fill="#A740A8"/>
<path d="M272.235 147.923C279.372 147.923 285.159 142.132 285.159 134.988C285.159 127.844 279.372 122.053 272.235 122.053C265.097 122.053 259.311 127.844 259.311 134.988C259.311 142.132 265.097 147.923 272.235 147.923Z" fill="#767D9F"/>
<path d="M271.564 118.532C272.854 124.166 273.948 129.842 274.848 135.559C275.118 137.258 275.359 139.05 274.744 140.656C274.229 141.995 273.18 143.041 272.357 144.214C271.534 145.386 270.912 146.888 271.412 148.231C271.912 149.574 273.373 150.309 274.766 150.687C278.754 151.763 283.005 150.98 286.975 149.815C288.772 149.352 290.495 148.638 292.093 147.693C293.776 146.625 295.154 145.141 296.422 143.613C302.207 136.591 305.995 128.162 309.561 119.786C307.27 119.995 304.962 119.655 302.828 118.794C300.694 117.934 298.796 116.578 297.289 114.838C295.829 113.12 294.758 110.727 295.581 108.628C293.168 109.952 290.303 110.041 287.705 110.946C286.094 111.562 284.543 112.326 283.072 113.228C281.298 114.254 279.534 115.3 277.779 116.366C275.774 117.575 273.895 118.651 271.564 118.532Z" fill="#AE6E79"/>
<path d="M298.594 128.244C296.329 132.655 293.383 136.895 289.176 139.521C284.97 142.148 279.306 142.86 275.092 140.263C273.017 138.994 271.445 137.066 269.633 135.441C267.82 133.816 265.556 132.425 263.121 132.636C260.438 132.87 258.336 134.966 256.539 136.973C253.811 140.022 251.176 143.201 249.245 146.811C245.538 153.747 244.66 161.857 244.823 169.721C244.986 177.585 246.124 185.409 246.15 193.273C246.187 202.948 244.549 212.544 242.892 222.074C258.125 220.197 273.376 224.3 288.642 225.854C298.412 226.86 308.256 226.837 318.078 226.811C319.805 226.811 321.643 226.767 323.081 225.81C323.96 225.168 324.671 224.323 325.153 223.347C326.51 220.843 327.054 217.986 327.432 215.163C328.392 208.034 328.422 200.815 328.448 193.618C328.515 176.183 328.578 158.685 326.365 141.387C325.82 137.132 325.123 132.855 323.493 128.875C321.862 124.894 319.201 121.233 315.48 119.1C313.089 117.727 307.548 115.338 304.731 116.722C301.57 118.265 300.11 125.291 298.594 128.244Z" fill="#767D9F"/>
<path d="M299.721 177.478C299.146 166.72 296.807 155.239 301.785 145.69C303.008 143.346 298.62 140.419 299.976 138.149C301.632 135.381 302.887 132.392 303.705 129.272C303.986 128.199 304.213 127.064 303.946 125.989C303.453 124.026 301.514 122.858 299.869 121.663C298.053 120.343 297.119 116.318 296.533 114.14C295.948 111.963 301.192 114.585 303.301 113.81C306.229 112.738 309.95 113.413 312.87 114.5C314.501 115.101 316.273 115.153 318.011 115.197C321.388 115.286 324.775 115.372 328.126 114.956C329.63 114.767 331.139 114.481 332.651 114.567C336.509 114.786 339.863 117.427 342.146 120.55C344.43 123.674 345.882 127.313 347.754 130.696C349.314 133.515 351.175 136.179 352.506 139.113C353.684 141.71 354.429 144.499 355.167 147.274L357.068 154.393C357.401 155.411 357.559 156.479 357.535 157.55C357.439 158.688 356.935 159.749 356.423 160.762C354.489 164.516 352.17 168.058 349.503 171.331C345.504 176.239 340.649 180.664 338.273 186.54C337.347 188.829 336.832 191.262 336.361 193.688C334.463 203.392 333.114 213.194 332.321 223.05C327.99 221.044 323.451 219.525 318.786 218.52C316.46 218.022 314.109 217.651 311.744 217.407C309.672 217.192 307 217.6 305.028 217.037C301.729 216.098 301.366 210.515 300.866 207.592C300.065 202.936 299.906 198.199 299.876 193.496C299.839 188.146 300.006 182.808 299.721 177.478Z" fill="#4C4981"/>
<path d="M227.281 157.36C228.841 166.263 230.561 175.192 233.952 183.558C233.867 183.639 233.782 183.713 233.697 183.788C233.396 184.044 233.085 184.285 232.759 184.529C231.999 185.064 231.165 185.516 230.535 186.214C230.297 186.481 230.108 186.788 229.979 187.122C229.863 187.383 229.803 187.666 229.803 187.952C229.803 188.237 229.863 188.52 229.979 188.781C228.211 189.563 226.158 189.322 224.175 189.248C222.467 189.185 220.81 189.248 219.439 190.187C217.533 191.5 216.959 194.022 216.651 196.315C216.538 197.151 216.44 197.988 216.359 198.826C216.28 199.605 216.215 200.387 216.166 201.171C215.998 203.764 215.974 206.365 216.095 208.961C216.115 209.436 216.141 209.91 216.173 210.385C210.117 210.241 204.599 207.08 199.376 204.008C198.183 203.307 196.952 202.569 196.178 201.412C195.464 200.275 195.162 198.928 195.322 197.595C195.322 197.405 195.355 197.224 195.381 197.031C195.547 195.93 195.832 194.85 196.23 193.811C197.864 189.383 200.272 185.282 203.342 181.699C204.669 180.148 206.163 178.631 206.782 176.684C207.052 175.834 207.152 174.933 207.426 174.087C208.657 170.422 213.097 168.69 214.617 165.132C214.987 164.283 215.158 163.351 215.617 162.535C216.031 161.857 216.565 161.26 217.192 160.773C217.463 160.547 217.745 160.328 218.023 160.109C220.627 158.067 223.136 155.909 225.55 153.636C226 153.213 226.445 152.785 226.884 152.353C226.826 154.032 226.959 155.712 227.281 157.36V157.36Z" fill="#4C4981"/>
<path d="M264.629 131.03C264.096 131.594 263.517 132.124 262.95 132.651L262.798 132.788L262.198 133.345C261.108 134.286 260.165 135.385 259.4 136.605L259.337 136.709C257.447 140.096 258.147 144.266 258.673 148.112C259.326 152.906 259.62 157.742 259.552 162.58C259.455 169.257 258.67 175.89 258.655 182.56C258.655 184.073 258.688 185.583 258.755 187.096C258.862 189.556 259.048 192.012 259.27 194.467C259.511 197.161 259.8 199.85 260.071 202.539C260.286 204.621 260.489 206.698 260.66 208.775C260.745 209.851 260.827 210.923 260.893 211.999C260.971 213.26 261.034 214.525 261.071 215.786C261.097 216.588 261.112 217.385 261.112 218.187C261.112 218.643 261.112 219.095 261.112 219.548C261.112 220.416 261.089 221.282 261.042 222.145C260.992 223.255 260.917 224.368 260.816 225.483C260.701 226.696 260.497 228.021 259.644 228.874C259.593 228.926 259.537 228.974 259.481 229.022L258.28 228.874C250.002 227.882 241.645 227.733 233.337 228.429C233.519 227.175 233.686 225.925 233.849 224.667C233.923 224.074 233.997 223.476 234.067 222.879C234.149 222.197 234.227 221.514 234.301 220.831C234.386 220.09 234.464 219.348 234.538 218.606C234.731 216.694 234.9 214.781 235.046 212.867C235.261 210.075 235.424 207.278 235.535 204.476C235.589 203.138 235.631 201.799 235.661 200.458C235.703 198.796 235.723 197.133 235.72 195.469C235.72 193.852 235.707 192.232 235.68 190.609C235.68 190.075 235.657 189.541 235.613 189.011C235.581 188.533 235.515 188.058 235.416 187.59C235.141 186.51 234.769 185.457 234.304 184.444C234.223 184.251 234.145 184.073 234.067 183.869C234.023 183.769 233.982 183.665 233.941 183.565C236.076 181.662 237.596 179.113 239.056 176.606C241.424 172.566 243.848 168.348 244.245 163.682C244.641 159.015 242.325 153.773 237.87 152.349C236.658 151.978 235.376 151.874 234.127 151.655C232.948 151.447 230.491 150.976 229.127 150.13C228.386 150.892 227.644 151.64 226.903 152.375C226.948 151.254 227.222 150.155 227.707 149.144L228.234 149.17C228.191 149.051 228.171 148.925 228.174 148.799C228.174 148.402 228.449 147.953 229.034 147.456C230.78 145.972 233.526 145.642 234.627 143.635C235.087 142.8 235.164 141.806 235.535 140.931C236.599 138.434 239.653 137.514 241.491 135.518C243.329 133.523 243.789 130.696 245.275 128.47C246.385 126.845 247.925 125.561 249.723 124.761C249.871 124.69 250.023 124.62 250.175 124.557C253.251 123.24 256.905 122.939 260.093 122.947C261.331 122.947 264.54 122.984 266.112 123.611C266.367 123.702 266.6 123.845 266.798 124.03C268.473 125.855 265.867 129.709 264.629 131.03Z" fill="#4C4981"/>
<path d="M227.833 148.884C230.696 148.022 233.702 147.737 236.676 148.047C239.65 148.357 242.533 149.256 245.157 150.691C247.825 152.175 250.219 154.245 251.687 156.915C253.892 160.922 253.796 165.752 253.64 170.326C253.562 172.614 253.462 174.985 252.454 177.04C251.287 179.418 249.085 181.05 246.839 182.385C245.432 183.284 243.891 183.951 242.273 184.363C239.782 184.904 237.195 184.444 234.686 183.992C231.958 183.487 229.03 182.879 227.137 180.846C226.025 179.666 225.417 178.134 224.816 176.636C223.954 174.472 223.089 172.31 222.222 170.151C220.721 166.401 220.213 163.281 222.196 159.627C223.097 157.962 224.197 156.404 225.087 154.727C225.532 153.874 227.125 149.103 227.833 148.884Z" fill="#4C4981"/>
<path d="M383.601 213.012V224.103C375.999 227.265 367.843 228.879 359.611 228.852H259.656C259.604 228.904 259.548 228.952 259.492 229L258.292 228.852H80.4896C65.5718 228.852 51.7473 224.823 40.4097 217.96V201.026L125.921 191.147H125.988L175.786 195.369L188.673 196.482L195.366 197.049L209.22 198.225L216.347 198.83L226.725 199.713L228.185 199.835L235.665 200.47L245.813 201.304L260.082 202.514L283.869 204.535L300.603 205.956L328.081 208.289L333.307 208.731L333.87 208.779L334.36 208.82L341.261 209.406L348.836 210.052L349.715 210.126L383.601 213.012Z" fill="#504F60"/>
<path d="M283.161 212.604L175.997 194.297L171.842 215.326L220.965 221.214L236.091 223.109L277.698 214.907L283.161 212.604Z" fill="#9C9CA1"/>
<path d="M227.689 222.056L281.378 211.954C281.647 211.903 281.923 211.912 282.188 211.98C282.453 212.048 282.7 212.174 282.91 212.349C283.12 212.524 283.29 212.743 283.405 212.991C283.521 213.239 283.581 213.51 283.58 213.783V213.783C283.581 214.218 283.43 214.638 283.153 214.973C282.876 215.307 282.49 215.533 282.064 215.612L229.631 225.439L227.689 222.056Z" fill="#9C9CA1"/>
<path d="M250.979 190.291C252.651 190.135 254.344 189.871 255.849 189.129C257.702 188.206 259.144 186.614 260.86 185.442C264.633 182.845 269.681 182.497 274.006 183.988C278.332 185.479 281.941 188.673 284.469 192.487C286.148 195.028 287.408 198.27 286.222 201.074C285.815 201.932 285.302 202.734 284.695 203.463L281.604 207.507C281.017 208.357 280.31 209.118 279.506 209.766C278.35 210.608 276.912 210.953 275.496 211.161C271.734 211.71 267.906 211.398 264.114 211.65C257.602 212.084 251.242 214.184 244.715 214.113C240.965 214.073 237.262 213.316 233.597 212.559L217.374 209.221C214.55 208.642 211.359 207.796 210.028 205.233C209.432 204.079 209.32 202.744 209.25 201.445C209.057 197.869 209.25 193.893 211.726 191.314C214.053 188.896 217.734 188.132 220.513 186.344C223.916 184.151 225.039 184.86 228.626 186.507C235.626 189.679 243.327 190.983 250.979 190.291V190.291Z" fill="#AE6E79"/>
<path opacity="0.05" d="M250.979 190.291C252.651 190.135 254.344 189.871 255.849 189.129C257.702 188.206 259.144 186.614 260.86 185.442C264.633 182.845 269.681 182.497 274.006 183.988C278.332 185.479 281.941 188.673 284.469 192.487C286.148 195.028 287.408 198.27 286.222 201.074C285.815 201.932 285.302 202.734 284.695 203.463L281.604 207.507C281.017 208.357 280.31 209.118 279.506 209.766C278.35 210.608 276.912 210.953 275.496 211.161C271.734 211.71 267.906 211.398 264.114 211.65C257.602 212.084 251.242 214.184 244.715 214.113C240.965 214.073 237.262 213.316 233.597 212.559L217.374 209.221C214.55 208.642 211.359 207.796 210.028 205.233C209.432 204.079 209.32 202.744 209.25 201.445C209.057 197.869 209.25 193.893 211.726 191.314C214.053 188.896 217.734 188.132 220.513 186.344C223.916 184.151 225.039 184.86 228.626 186.507C235.626 189.679 243.327 190.983 250.979 190.291V190.291Z" fill="black"/>
<path d="M316.125 185.205C311.573 186.967 306.996 188.736 302.23 189.786C294.239 191.548 285.878 191.27 277.95 193.284C273.762 194.352 269.6 196.074 265.297 195.725C263.373 195.569 261.516 194.983 259.644 194.538C249.13 191.941 237.177 192.783 228.638 199.461C225.717 201.742 223.326 204.587 221.158 207.622C220.694 208.277 220.381 209.027 220.24 209.818C220.099 210.608 220.135 211.421 220.344 212.196C220.553 212.972 220.931 213.691 221.451 214.303C221.97 214.916 222.618 215.406 223.349 215.738C226.67 217.267 230.227 218.216 233.867 218.546C238.734 218.977 243.622 218.287 248.463 217.597C255.645 216.577 262.832 215.553 269.996 214.406C272.568 213.995 275.14 213.568 277.727 213.242C296.344 210.886 315.298 213.75 333.963 211.784C335.85 211.583 337.769 211.324 339.485 210.519C343.829 208.479 345.979 203.1 345.082 198.374C344.185 193.648 340.723 189.719 336.557 187.308C333.066 185.279 329.3 184.459 325.413 183.598C321.803 182.756 319.601 183.869 316.125 185.205Z" fill="#AE6E79"/>
<path opacity="0.1" d="M356.053 156.952C358.106 159.646 358.543 163.259 358.321 166.631C358.098 170.003 357.298 173.338 357.179 176.725C357.016 181.369 358.135 185.998 357.946 190.628C357.813 193.866 357.046 197.042 356.138 200.151C355.067 203.819 353.517 207.763 350.134 209.525C345.642 211.865 336.22 210.549 331.495 212.381C331.925 209.699 336.046 205.815 336.476 203.133C336.772 201.278 337.073 199.372 336.754 197.513C336.346 195.143 334.956 193.039 333.307 191.288C330.683 188.502 327.258 186.407 323.496 185.724C319.735 185.041 310.524 185.602 307.515 187.979C307.144 185.524 314.038 183.157 316.462 182.626C317.67 182.356 319.056 182.508 320.024 181.74C321.877 180.286 320.531 177.389 320.62 175.063C320.691 173.208 321.773 171.509 321.992 169.654C322.362 166.686 320.428 163.663 321.187 160.751C321.469 159.675 322.095 158.729 322.529 157.705C323.848 154.571 323.27 150.995 322.566 147.664C322.129 145.571 321.703 143.212 322.866 141.428C323.945 139.762 327.006 145.694 328.967 145.419C335.442 144.51 341.301 139.707 346.531 143.639C349.196 145.642 349.544 147.719 350.608 150.579C351.642 153.302 354.322 154.697 356.053 156.952Z" fill="black"/>
<path d="M357.164 156.952C359.218 159.646 359.655 163.259 359.433 166.631C359.21 170.003 358.41 173.338 358.291 176.725C358.128 181.369 359.247 185.998 359.058 190.628C358.925 193.867 358.158 197.042 357.25 200.151C356.179 203.819 354.629 207.763 351.245 209.525C346.753 211.865 337.332 210.549 332.606 212.381C333.036 209.699 337.158 205.815 337.588 203.133C337.884 201.278 338.184 199.372 337.866 197.513C337.458 195.143 336.068 193.039 334.419 191.288C331.795 188.502 328.37 186.407 324.608 185.724C320.846 185.041 311.636 185.602 308.627 187.979C308.256 185.524 315.15 183.157 317.574 182.626C318.782 182.356 320.168 182.508 321.136 181.74C322.989 180.286 321.643 177.389 321.732 175.063C321.803 173.208 322.885 171.509 323.104 169.654C323.474 166.686 321.539 163.663 322.299 160.751C322.581 159.675 323.207 158.729 323.641 157.705C324.96 154.571 324.382 150.995 323.678 147.664C323.241 145.571 322.814 143.212 323.978 141.428C325.057 139.762 327.166 139.132 329.126 138.853C335.691 137.965 342.342 139.682 347.658 143.639C350.323 145.642 350.671 147.719 351.735 150.579C352.754 153.302 355.434 154.697 357.164 156.952Z" fill="#4C4981"/>
<path d="M111.93 139.376L132.081 213.917C132.328 214.83 132.848 215.646 133.57 216.257C134.293 216.867 135.184 217.242 136.125 217.333L226.825 226.054C227.564 226.126 228.31 226.019 228.999 225.742C229.689 225.466 230.302 225.028 230.787 224.466C231.273 223.904 231.617 223.233 231.79 222.51C231.964 221.788 231.962 221.034 231.784 220.312L209.717 130.399C209.454 129.33 208.822 128.389 207.931 127.744C207.041 127.098 205.951 126.789 204.854 126.871L116.055 133.519C115.373 133.572 114.712 133.775 114.117 134.113C113.523 134.452 113.01 134.917 112.616 135.477C112.222 136.036 111.957 136.676 111.838 137.35C111.719 138.024 111.751 138.716 111.93 139.376V139.376Z" fill="#9C9CA1"/>
<path d="M291.726 153.922C297.232 153.922 301.696 149.396 301.696 143.813C301.696 138.23 297.232 133.705 291.726 133.705C286.22 133.705 281.756 138.23 281.756 143.813C281.756 149.396 286.22 153.922 291.726 153.922Z" fill="white"/>
<path d="M299.913 125.373C299.913 125.373 302.015 131.627 295.814 134.257L295.021 135.645L298.905 139.48C298.905 139.48 303.694 130.737 303.175 127.632C303.175 127.632 302.434 124.479 299.913 125.373Z" fill="white"/>
<path d="M292.871 153.922C298.181 153.922 302.485 149.613 302.485 144.299C302.485 138.984 298.181 134.676 292.871 134.676C287.562 134.676 283.257 138.984 283.257 144.299C283.257 149.613 287.562 153.922 292.871 153.922Z" fill="#A740A8"/>
<path d="M303.223 129.053L301.696 126.53L299.472 126.215C299.947 117.909 297.793 115.435 297.793 115.435L297.293 115.387L295.114 115.175L291.014 110.917V109.707C296.774 110.394 299.958 113.131 301.678 116.34C304.717 121.971 303.223 129.053 303.223 129.053Z" fill="#A740A8"/>
<path opacity="0.1" d="M297.311 113.858V115.387L295.132 115.175L291.033 110.917C291.033 110.917 297.374 112.337 297.311 113.858Z" fill="black" stroke="#4C4981" stroke-miterlimit="10"/>
<path opacity="0.1" d="M303.223 129.053L301.696 126.53V116.355C304.717 121.971 303.223 129.053 303.223 129.053Z" fill="black" stroke="#4C4981" stroke-miterlimit="10"/>
<path d="M275.106 148.255C277.664 146.776 277.554 141.793 274.86 137.123C272.166 132.453 267.909 129.865 265.351 131.344C262.793 132.822 262.903 137.806 265.597 142.476C268.29 147.145 272.548 149.733 275.106 148.255Z" fill="white"/>
<path d="M271.671 138.983C274.366 143.654 277.672 146.773 275.115 148.257C272.557 149.741 265.108 148.999 262.413 144.325C259.719 139.651 262.165 133.196 264.722 131.712C267.279 130.229 268.973 134.302 271.671 138.983Z" fill="#A740A8"/>
<path opacity="0.1" d="M295.662 105.337C295.662 120.261 285.459 134.643 270.548 134.643C263.387 134.643 256.52 131.796 251.456 126.728C246.393 121.66 243.548 114.786 243.548 107.619C243.548 100.452 246.393 93.5778 251.456 88.5097C256.52 83.4417 263.387 80.5945 270.548 80.5945C285.459 80.6093 295.662 90.41 295.662 105.337Z" fill="black"/>
<path d="M270.548 133.916C285.46 133.916 297.549 121.817 297.549 106.891C297.549 91.9664 285.46 79.8672 270.548 79.8672C255.636 79.8672 243.548 91.9664 243.548 106.891C243.548 121.817 255.636 133.916 270.548 133.916Z" fill="#AE6E79"/>
<path d="M268.176 94.9173C271.39 96.1006 273.291 99.4244 276.174 101.275C280.251 103.872 285.559 103.201 290.214 101.917C292.808 101.209 295.521 100.344 298.075 101.131C298.451 101.297 298.865 101.356 299.272 101.301C299.828 101.142 300.102 100.526 300.284 99.9771C303.442 90.5548 302.022 79.8823 297.256 71.1648C296.025 68.9168 294.55 66.743 292.519 65.1812C290.918 63.9533 289.035 63.1484 287.138 62.4621C283.67 61.2155 280.083 60.3292 276.434 59.8172C275.789 59.7 275.131 59.6787 274.481 59.7541C273.587 59.8988 272.787 60.381 271.99 60.8113C268.577 62.6424 264.792 63.6713 260.923 63.8198C255.734 64.0164 249.804 62.7923 245.805 66.1235C240.987 70.1187 242.188 77.9125 239.063 83.3359C236.995 86.9231 233.007 89.5272 232.351 93.6115C232.18 94.8598 232.26 96.1297 232.585 97.347C234.112 103.631 240.19 108.498 246.669 108.613C247.664 108.689 248.66 108.485 249.545 108.023C250.124 107.627 250.636 107.14 251.061 106.58C255.304 101.55 260.16 91.9644 268.176 94.9173Z" fill="#444053"/>
<path opacity="0.1" d="M300.284 97.2431C300.102 97.7921 299.828 98.4079 299.272 98.5674C298.865 98.6223 298.451 98.5633 298.075 98.3968C295.521 97.6104 292.794 98.4747 290.218 99.1832C285.559 100.467 280.24 101.153 276.178 98.5415C273.291 96.6867 271.393 93.3481 268.176 92.1832C260.16 89.2156 255.304 98.816 251.05 103.846C250.625 104.406 250.113 104.893 249.534 105.289C248.649 105.751 247.652 105.955 246.658 105.879C240.201 105.764 234.119 100.897 232.574 94.613C232.488 94.2421 232.414 93.8711 232.359 93.5002C232.359 93.5335 232.359 93.5632 232.34 93.5966C232.169 94.8449 232.249 96.1148 232.574 97.3322C234.101 103.616 240.183 108.483 246.658 108.598C247.652 108.674 248.649 108.47 249.534 108.008C250.113 107.612 250.625 107.125 251.05 106.565C255.304 101.535 260.16 91.9495 268.176 94.9024C271.393 96.0857 273.291 99.4095 276.178 101.261C280.255 103.857 285.559 103.186 290.218 101.902C292.812 101.194 295.521 100.33 298.075 101.116C298.451 101.282 298.865 101.341 299.272 101.287C299.828 101.127 300.102 100.511 300.284 99.9622C301.558 96.1069 302.12 92.0519 301.944 87.9951C301.835 91.1414 301.276 94.2557 300.284 97.2431V97.2431Z" fill="black"/>
</g>
<defs>
<clipPath id="clip0">
<rect width="424" height="229" fill="white"/>
</clipPath>
</defs>
</svg>
