<svg width="256" height="185" viewBox="0 0 256 185" fill="none" xmlns="http://www.w3.org/2000/svg">
<g clip-path="url(#clip0)">
<path d="M224.573 90.1123H222.294V180.197H224.573V90.1123Z" fill="#3F3D56"/>
<path d="M245.603 101.592C245.748 133.092 223.604 158.731 223.604 158.731C223.604 158.731 201.224 133.298 201.079 101.797C200.934 70.297 223.079 44.6582 223.079 44.6582C223.079 44.6582 245.458 70.0916 245.603 101.592Z" fill="#3F3D56"/>
<path d="M179.008 132.498H177.836V178.831H179.008V132.498Z" fill="#3F3D56"/>
<path d="M189.825 138.403C189.899 154.604 178.51 167.791 178.51 167.791C178.51 167.791 167 154.71 166.925 138.509C166.85 122.307 178.24 109.121 178.24 109.121C178.24 109.121 189.75 122.202 189.825 138.403Z" fill="#3F3D56"/>
<path d="M202.11 185C219.647 185 233.864 182.819 233.864 180.129C233.864 177.438 219.647 175.257 202.11 175.257C184.572 175.257 170.355 177.438 170.355 180.129C170.355 182.819 184.572 185 202.11 185Z" fill="#3F3D56"/>
<path d="M204.729 66.5945C202.039 62.0451 196.716 61.8331 196.716 61.8331C196.716 61.8331 191.529 61.1693 188.202 68.0981C185.101 74.5564 180.821 80.7919 187.513 82.3038L188.722 78.5385L189.471 82.5841C190.423 82.6527 191.379 82.669 192.334 82.6331C199.501 82.4015 206.326 82.7008 206.106 80.1271C205.814 76.7056 207.317 70.972 204.729 66.5945Z" fill="#2F2E41"/>
<path d="M195.04 75.1619C195.04 75.1619 198.517 80.0333 196.431 83.9768C194.345 87.9203 201.299 92.0958 201.299 92.0958L206.398 80.9612C206.398 80.9612 200.371 77.0177 201.994 73.3062L195.04 75.1619Z" fill="#FBBEBE"/>
<path d="M197.358 77.2495C200.687 77.2495 203.385 74.5492 203.385 71.2182C203.385 67.8873 200.687 65.187 197.358 65.187C194.03 65.187 191.332 67.8873 191.332 71.2182C191.332 74.5492 194.03 77.2495 197.358 77.2495Z" fill="#FBBEBE"/>
<path d="M176.502 78.1902L181.539 71.6872C181.539 71.6872 183.312 64.8708 185.88 65.2163C188.448 65.5619 184.866 73.3909 184.866 73.3909L179.862 80.5891L176.502 78.1902Z" fill="#FBBEBE"/>
<path d="M201.994 164.702L203.617 173.285L207.093 174.213L206.166 164.006L201.994 164.702Z" fill="#FBBEBE"/>
<path d="M236.994 155.424L243.252 164.007L245.802 165.166L247.888 161.687L241.629 153.568L236.994 155.424Z" fill="#FBBEBE"/>
<path d="M200.603 88.3843L196.737 83.2904C196.737 83.2904 189.246 84.6728 188.55 85.3687C187.855 86.0646 190.405 98.823 190.405 98.823C190.405 98.823 190.868 102.303 192.954 104.158L195.04 105.55L212.192 102.071L212.837 94.4327C213.072 91.6508 212.724 88.8503 211.815 86.2109C210.905 83.5715 209.455 81.1514 207.557 79.1055L204.572 79.5138L200.603 88.3843Z" fill="#575A89"/>
<path d="M189.477 85.8327L188.319 85.3687L182.987 84.9048C182.987 84.9048 181.133 84.4409 181.597 83.513C182.06 82.5851 182.524 82.3531 181.597 82.1212C180.67 81.8892 180.438 81.6572 180.67 80.9613C180.901 80.2654 182.292 78.8736 182.292 78.8736L178.352 75.626C178.352 75.626 178.139 75.7769 177.794 76.0563C175.837 77.6415 169.647 83.3609 174.18 89.0803C179.511 95.8074 185.769 99.7509 190.868 98.3591L189.477 85.8327Z" fill="#575A89"/>
<path d="M194.577 104.39V107.638C194.577 107.638 192.491 111.581 193.186 115.293C193.881 119.004 194.113 120.86 194.113 120.86C194.189 124.016 194.736 127.144 195.736 130.139C197.358 134.778 192.027 165.166 198.749 165.63C205.471 166.094 209.179 166.558 211.265 164.238C213.351 161.919 207.789 122.02 207.789 122.02C207.789 122.02 226.795 161.687 230.735 160.063C234.676 158.439 244.643 154.728 243.484 152.64C242.325 150.552 213.12 104.158 213.12 104.158L212.193 102.07L194.577 104.39Z" fill="#2F2E41"/>
<path d="M205.702 171.662C205.702 171.662 201.994 171.43 201.994 172.589C201.994 173.749 200.14 177.693 200.14 177.693C200.14 177.693 198.749 182.332 202.458 181.868C206.166 181.404 208.484 177.229 208.484 177.229L207.557 172.821L205.702 171.662Z" fill="#2F2E41"/>
<path d="M244.411 163.543C244.411 163.543 241.166 161.455 241.397 162.847C241.629 164.238 241.861 167.95 243.484 168.182C245.106 168.414 249.974 169.806 250.205 170.27C250.437 170.734 256 172.589 256 169.574C256 166.558 252.523 164.238 252.523 164.238L248.583 161.223C248.583 161.223 246.033 160.991 245.57 162.615C245.106 164.238 244.411 163.543 244.411 163.543Z" fill="#2F2E41"/>
<path d="M197.367 65.7076C199.493 65.7076 201.216 63.9831 201.216 61.856C201.216 59.7288 199.493 58.0044 197.367 58.0044C195.242 58.0044 193.519 59.7288 193.519 61.856C193.519 63.9831 195.242 65.7076 197.367 65.7076Z" fill="#2F2E41"/>
<path d="M193.114 60.8423C193.114 59.891 193.466 58.9735 194.101 58.2663C194.737 57.5592 195.612 57.1125 196.557 57.0124C196.423 56.9981 196.287 56.9909 196.152 56.9907C195.131 56.9907 194.152 57.3965 193.431 58.1188C192.709 58.8411 192.304 59.8208 192.304 60.8423C192.304 61.8638 192.709 62.8435 193.431 63.5658C194.152 64.2881 195.131 64.6939 196.152 64.6939C196.287 64.6937 196.423 64.6865 196.557 64.6722C195.612 64.5721 194.737 64.1254 194.101 63.4183C193.466 62.7111 193.114 61.7936 193.114 60.8423Z" fill="#2F2E41"/>
<path d="M203.539 66.1557L198.281 63.3989L191.019 64.5268L189.517 71.1676L193.257 71.0236L194.302 68.5839V70.9834L196.027 70.9171L197.029 67.0327L197.655 71.1676L203.79 71.0423L203.539 66.1557Z" fill="#2F2E41"/>
<path d="M203.225 104.928L195.115 105.147C195.115 105.147 188.195 106.495 188.584 103.7C188.972 100.904 195.722 101.882 195.722 101.882L203.112 100.754L203.225 104.928Z" fill="#FBBEBE"/>
<path d="M209.641 78.7124C210.048 78.6506 210.465 78.7365 210.815 78.9546C211.165 79.1727 211.425 79.5086 211.55 79.9019C213.137 84.9088 218.028 101.664 213.169 103.963C207.445 106.67 203.268 106.551 203.268 106.551L201.033 101.042L203.068 99.1307L205.241 85.1486L206.282 79.2216L209.641 78.7124Z" fill="#575A89"/>
<path opacity="0.4" d="M208.136 88.0361L207.209 97.315L199.097 100.795L208.136 98.7068V88.0361Z" fill="black"/>
<path d="M164.386 57.4038C166.999 58.0967 169.259 59.7403 170.726 62.013L171.484 63.1881L171.522 63.2367L184.823 67.1318C185.067 67.2032 185.273 67.3675 185.397 67.5894C185.521 67.8113 185.553 68.073 185.486 68.3183L184.453 72.1076C184.42 72.231 184.362 72.3466 184.284 72.4476C184.205 72.5486 184.108 72.6331 183.996 72.6962C183.885 72.7594 183.763 72.7999 183.636 72.8154C183.509 72.8309 183.38 72.8212 183.257 72.7867L169.953 69.065L169.952 69.0654L168.616 69.571C166.156 70.502 163.457 70.5938 160.939 69.8321L164.386 57.4038Z" fill="#3F3D56"/>
<path d="M178.393 68.3933C178.519 67.9624 177.967 67.4215 177.16 67.1851C176.352 66.9487 175.596 67.1063 175.47 67.5372C175.344 67.9681 175.896 68.509 176.703 68.7454C177.511 68.9818 178.267 68.8241 178.393 68.3933Z" fill="#575A89"/>
<path d="M177.714 68.7906C178.022 68.7906 178.272 68.5403 178.272 68.2317C178.272 67.9231 178.022 67.6729 177.714 67.6729C177.405 67.6729 177.155 67.9231 177.155 68.2317C177.155 68.5403 177.405 68.7906 177.714 68.7906Z" fill="#3F3D56"/>
<path d="M165.498 64.5813C166.607 61.158 166.252 57.9759 164.705 57.474C163.158 56.972 161.005 59.3402 159.896 62.7635C158.787 66.1868 159.142 69.3688 160.689 69.8708C162.235 70.3728 164.389 68.0046 165.498 64.5813Z" fill="#A740A8"/>
<path opacity="0.4" d="M165.084 64.4604C166.153 61.1619 165.862 58.0877 164.456 57.4189C164.541 57.4295 164.624 57.448 164.705 57.4742C166.252 57.9761 166.607 61.1582 165.498 64.5815C164.389 68.0048 162.235 70.373 160.689 69.871C160.633 69.8527 160.578 69.8307 160.524 69.8052C162.046 69.9991 164.034 67.7034 165.084 64.4604Z" fill="black"/>
<path d="M164.561 57.4162L134.373 33.9813C129.035 29.8074 123.913 25.3644 119.026 20.6696C110.42 12.4607 98.7389 5.89751 85.1382 2.40322C52.0946 -6.08635 25.9173 8.9667 14.0111 31.0697C-4.1828 64.8456 -18.126 119.655 62.5456 90.4797C80.1884 84.0992 98.047 83.421 111.588 80.0602L160.62 69.9426L164.561 57.4162Z" fill="#A740A8"/>
<path d="M73.9324 17.981C74.8284 17.981 75.5549 17.254 75.5549 16.3572C75.5549 15.4604 74.8284 14.7334 73.9324 14.7334C73.0363 14.7334 72.3099 15.4604 72.3099 16.3572C72.3099 17.254 73.0363 17.981 73.9324 17.981Z" fill="#F2F2F2"/>
<path d="M105.451 20.1106H105.028V19.688H104.946V20.1106H104.524V20.1932H104.946V20.6159H105.028V20.1932H105.451V20.1106Z" fill="#F2F2F2"/>
<path d="M147.867 55.3704H147.445V54.9478H147.363V55.3704H146.94V55.453H147.363V55.8756H147.445V55.453H147.867V55.3704Z" fill="#F2F2F2"/>
<path d="M144.854 66.2728H144.432V65.8501H144.349V66.2728H143.927V66.3553H144.349V66.778H144.432V66.3553H144.854V66.2728Z" fill="#F2F2F2"/>
<path d="M15.286 75.5516H14.8637V75.1289H14.7812V75.5516H14.3589V75.6341H14.7812V76.0568H14.8637V75.6341H15.286V75.5516Z" fill="#F2F2F2"/>
<path d="M33.8289 24.9822H33.4066V24.5596H33.3241V24.9822H32.9017V25.0648H33.3241V25.4874H33.4066V25.0648H33.8289V24.9822Z" fill="#F2F2F2"/>
<path d="M105.914 68.1287H105.492V67.7061H105.409V68.1287H104.987V68.2113H105.409V68.6339H105.492V68.2113H105.914V68.1287Z" fill="#F2F2F2"/>
<path d="M61.6432 10.136H61.2209V9.71338H61.1383V10.136H60.716V10.2186H61.1383V10.6413H61.2209V10.2186H61.6432V10.136Z" fill="#F2F2F2"/>
<path d="M61.8055 43.5347L61.2793 43.6159C61.4439 44.669 61.5737 45.7453 61.6687 46.8101L62.1995 46.7637C62.1045 45.685 61.9724 44.5994 61.8055 43.5347Z" fill="#E6E6E6"/>
<path d="M60.3661 37.1924L59.8562 37.3478C60.1644 38.3685 60.4403 39.4147 60.6744 40.4562L61.1959 40.3379C60.9571 39.2848 60.6767 38.227 60.3661 37.1924Z" fill="#E6E6E6"/>
<path d="M58.0691 31.1104L57.5847 31.333C58.0297 32.305 58.4469 33.3025 58.8247 34.2999L59.3231 34.1121C58.9406 33.103 58.5211 32.0916 58.0691 31.1104Z" fill="#E6E6E6"/>
<path d="M54.9632 25.4082L54.5135 25.6935C55.086 26.5936 55.6353 27.5261 56.1453 28.4609L56.6135 28.2058C56.0989 27.2593 55.5426 26.3175 54.9632 25.4082Z" fill="#E6E6E6"/>
<path d="M51.1016 20.1821L50.696 20.5278C51.3867 21.3397 52.0589 22.1887 52.694 23.047L53.1205 22.7292C52.4807 21.8616 51.8016 21.0033 51.1016 20.1821Z" fill="#E6E6E6"/>
<path d="M46.5632 15.5288L46.2086 15.9255C47.0059 16.6376 47.7871 17.3869 48.5311 18.1501L48.9135 17.7766C48.1603 17.0041 47.3698 16.2479 46.5632 15.5288Z" fill="#E6E6E6"/>
<path d="M41.4362 11.5342L41.1371 11.9749C42.0226 12.5711 42.8987 13.2067 43.7401 13.8632L44.0692 13.4433C43.2163 12.7799 42.3308 12.1373 41.4362 11.5342Z" fill="#E6E6E6"/>
<path d="M36.7703 8.75977V9.36289C37.3243 9.65285 37.8736 9.95673 38.4114 10.2676L38.6779 9.80595C38.0521 9.44407 37.4162 9.09534 36.7703 8.75977Z" fill="#E6E6E6"/>
<path d="M61.8414 50.1005L62.3742 50.0908C62.384 50.6292 62.3847 51.1705 62.3764 51.6998L61.8436 51.6915C61.8517 51.1682 61.851 50.6329 61.8414 50.1005Z" fill="#E6E6E6"/>
<path d="M30.5144 89.2329L29.9883 89.3141C30.1528 90.3672 30.2826 91.4436 30.3776 92.5083L30.9084 92.4619C30.8134 91.3833 30.6813 90.2977 30.5144 89.2329Z" fill="#E6E6E6"/>
<path d="M29.075 82.8906L28.5651 83.046C28.8734 84.0667 29.1492 85.1129 29.3833 86.1544L29.9048 86.0361C29.6661 84.983 29.3856 83.9252 29.075 82.8906Z" fill="#E6E6E6"/>
<path d="M26.778 76.8086L26.2936 77.0313C26.7386 78.0032 27.1559 79.0007 27.5337 79.9982L28.032 79.8103C27.6496 78.8012 27.23 77.7898 26.778 76.8086Z" fill="#E6E6E6"/>
<path d="M23.6721 71.1064L23.2224 71.3918C23.7949 72.2918 24.3443 73.2243 24.8542 74.1592L25.3224 73.904C24.8078 72.9576 24.2515 72.0158 23.6721 71.1064Z" fill="#E6E6E6"/>
<path d="M19.8106 65.8804L19.4049 66.226C20.0957 67.0379 20.7678 67.8869 21.4029 68.7452L21.8294 68.4274C21.1897 67.5598 20.5105 66.7015 19.8106 65.8804Z" fill="#E6E6E6"/>
<path d="M15.2722 61.2271L14.9175 61.6237C15.7149 62.3359 16.496 63.0851 17.24 63.8483L17.6225 63.4748C16.8692 62.7024 16.0788 61.9462 15.2722 61.2271Z" fill="#E6E6E6"/>
<path d="M10.1451 57.2324L9.84608 57.6732C10.7315 58.2693 11.6077 58.9049 12.449 59.5614L12.7782 59.1415C11.9252 58.4781 11.0398 57.8356 10.1451 57.2324Z" fill="#E6E6E6"/>
<path d="M5.47925 54.458V55.0611C6.03322 55.3511 6.58255 55.655 7.12029 55.9658L7.38684 55.5042C6.76102 55.1423 6.12515 54.7936 5.47925 54.458Z" fill="#E6E6E6"/>
<path d="M30.5503 95.7988L31.0831 95.7891C31.0929 96.3275 31.0936 96.8688 31.0853 97.3981L30.5526 97.3897C30.5607 96.8665 30.56 96.3312 30.5503 95.7988Z" fill="#E6E6E6"/>
<path d="M137.599 66.2681L137.073 66.3493C137.238 67.4024 137.368 68.4787 137.463 69.5435L137.993 69.4971C137.898 68.4184 137.766 67.3328 137.599 66.2681Z" fill="#E6E6E6"/>
<path d="M136.16 59.9258L135.65 60.0812C135.958 61.1019 136.234 62.1481 136.468 63.1896L136.99 63.0713C136.751 62.0182 136.471 60.9604 136.16 59.9258Z" fill="#E6E6E6"/>
<path d="M133.863 53.8438L133.379 54.0664C133.824 55.0384 134.241 56.0359 134.619 57.0333L135.117 56.8454C134.735 55.8364 134.315 54.825 133.863 53.8438Z" fill="#E6E6E6"/>
<path d="M130.757 48.1416L130.307 48.4269C130.88 49.327 131.429 50.2595 131.939 51.1943L132.407 50.9392C131.893 49.9927 131.337 49.0509 130.757 48.1416Z" fill="#E6E6E6"/>
<path d="M126.896 42.9155L126.49 43.2612C127.181 44.0731 127.853 44.9221 128.488 45.7804L128.914 45.4626C128.275 44.595 127.596 43.7367 126.896 42.9155Z" fill="#E6E6E6"/>
<path d="M122.357 38.2622L122.003 38.6589C122.8 39.371 123.581 40.1203 124.325 40.8835L124.707 40.51C123.954 39.7375 123.164 38.9813 122.357 38.2622Z" fill="#E6E6E6"/>
<path d="M117.23 34.2671L116.931 34.7078C117.816 35.304 118.693 35.9396 119.534 36.5961L119.863 36.1762C119.01 35.5128 118.125 34.8702 117.23 34.2671Z" fill="#E6E6E6"/>
<path d="M112.564 31.4927V32.0958C113.118 32.3858 113.668 32.6896 114.205 33.0005L114.472 32.5389C113.846 32.177 113.21 31.8283 112.564 31.4927Z" fill="#E6E6E6"/>
<path d="M137.635 72.8339L138.168 72.8242C138.178 73.3626 138.179 73.9039 138.17 74.4332L137.638 74.4249C137.646 73.9016 137.645 73.3663 137.635 72.8339Z" fill="#E6E6E6"/>
<path d="M34.6044 46.3695H34.2116V45.9761H34.1348V46.3695H33.7417V46.4461H34.1348V46.8395H34.2116V46.4461H34.6044V46.3695Z" fill="#F2F2F2"/>
<path d="M30.0751 70.1136H29.6823V69.7202H29.6055V70.1136H29.2124V70.1904H29.6055V70.5836H29.6823V70.1904H30.0751V70.1136Z" fill="#F2F2F2"/>
<path d="M16.7852 90.923H16.3921V90.5298H16.3154V90.923H15.9225V90.9998H16.3154V91.3932H16.3921V90.9998H16.7852V90.923Z" fill="#F2F2F2"/>
<path d="M53.7554 64.5301C49.9557 58.8774 48.3058 52.049 49.1051 45.2834C49.9043 38.5177 53.0998 32.2627 58.1119 27.6526C63.124 23.0426 69.621 20.3828 76.4246 20.1555C83.2281 19.9283 89.8878 22.1486 95.1959 26.414C100.504 30.6793 104.109 36.7072 105.357 43.4045C106.606 50.1018 105.414 57.025 102 62.9187C98.5848 68.8123 93.1728 73.2862 86.7448 75.5289C80.3169 77.7717 73.2987 77.6348 66.963 75.143C66.5522 76.6103 65.7843 77.9527 64.728 79.0502C63.6717 80.1476 62.36 80.9657 60.9103 81.4314C59.4606 81.897 57.9181 81.9956 56.421 81.7184C54.9239 81.4411 53.5188 80.7966 52.3316 79.8426C51.1444 78.8886 50.212 77.6549 49.6181 76.2519C49.0241 74.8488 48.7871 73.3203 48.9282 71.8031C49.0692 70.2859 49.584 68.8274 50.4265 67.5581C51.2689 66.2888 52.4127 65.2484 53.7554 64.5301Z" fill="#3F3D56"/>
<path d="M77.2143 32.3452C83.74 32.3452 88.2297 35.9677 88.2297 41.175C88.2297 44.6233 86.5591 47.0093 83.3398 48.9076C80.3119 50.6666 79.2852 51.9553 79.2852 54.1845C79.2852 54.3652 79.2496 54.5441 79.1805 54.7111C79.1114 54.878 79.0102 55.0297 78.8825 55.1574C78.7548 55.2852 78.6033 55.3865 78.4365 55.4557C78.2697 55.5248 78.0909 55.5604 77.9104 55.5604H74.5743C74.218 55.5604 73.8756 55.4219 73.6193 55.1742C73.363 54.9265 73.2128 54.5889 73.2004 54.2325L73.1945 54.0626C72.8987 50.475 74.1516 48.2458 77.3013 46.3997C80.2423 44.6407 81.4778 43.5261 81.4778 41.3666C81.4778 39.207 79.3896 37.6222 76.7967 37.6222C74.8259 37.6222 73.2663 38.5822 72.5509 40.1496C72.2995 40.6802 71.9015 41.1277 71.404 41.439C70.9065 41.7503 70.3302 41.9126 69.7435 41.9065C67.4831 41.9065 65.9899 39.5008 67.047 37.5012C68.7192 34.3382 72.2474 32.3452 77.2143 32.3452ZM72.6376 62.1958C72.6376 60.193 74.3082 58.6081 76.3616 58.6081C78.4324 58.6081 80.103 60.1756 80.103 62.1958C80.103 64.216 78.4324 65.7834 76.3616 65.7834C74.2908 65.7834 72.6376 64.216 72.6376 62.1958Z" fill="#A740A8"/>
</g>
<defs>
<clipPath id="clip0">
<rect width="256" height="185" fill="white"/>
</clipPath>
</defs>
</svg>
