<svg width="256" height="193" viewBox="0 0 256 193" fill="none" xmlns="http://www.w3.org/2000/svg">
<g clip-path="url(#clip0)">
<path d="M99.4319 143.851L54.0381 113.319L30.9674 147.439L76.3613 177.97L99.4319 143.851Z" fill="#F2F2F2"/>
<path d="M29.3302 173.201L28.8601 172.959C34.9653 161.187 31.7007 145.899 27.8871 135.148C25.2976 127.921 21.9947 120.969 18.027 114.393L18.4742 114.111C22.4624 120.72 25.7825 127.708 28.3856 134.971C32.2343 145.822 35.522 161.262 29.3302 173.201Z" fill="#2F2E41"/>
<path d="M33.857 114.206L30.4253 132.937L30.9455 133.031L34.3773 114.3L33.857 114.206Z" fill="#2F2E41"/>
<path d="M11.0383 130.164L10.6509 130.524L28.3725 149.518L28.7599 149.158L11.0383 130.164Z" fill="#2F2E41"/>
<path d="M42.8973 151.029L33.9084 163.43L34.3372 163.739L43.326 151.338L42.8973 151.029Z" fill="#2F2E41"/>
<path d="M35.4432 109.24C36.904 109.24 38.0882 108.059 38.0882 106.602C38.0882 105.145 36.904 103.964 35.4432 103.964C33.9824 103.964 32.7982 105.145 32.7982 106.602C32.7982 108.059 33.9824 109.24 35.4432 109.24Z" fill="#3F3D56"/>
<path d="M6.61255 129.553C8.07335 129.553 9.25756 128.372 9.25756 126.915C9.25756 125.458 8.07335 124.277 6.61255 124.277C5.15174 124.277 3.96753 125.458 3.96753 126.915C3.96753 128.372 5.15174 129.553 6.61255 129.553Z" fill="#3F3D56"/>
<path d="M18.2506 132.191C19.7114 132.191 20.8956 131.009 20.8956 129.553C20.8956 128.096 19.7114 126.915 18.2506 126.915C16.7898 126.915 15.6056 128.096 15.6056 129.553C15.6056 131.009 16.7898 132.191 18.2506 132.191Z" fill="#3F3D56"/>
<path d="M12.9606 142.479C14.4214 142.479 15.6056 141.298 15.6056 139.841C15.6056 138.384 14.4214 137.203 12.9606 137.203C11.4998 137.203 10.3156 138.384 10.3156 139.841C10.3156 141.298 11.4998 142.479 12.9606 142.479Z" fill="#3F3D56"/>
<path d="M46.0233 149.074C47.4841 149.074 48.6683 147.893 48.6683 146.436C48.6683 144.979 47.4841 143.798 46.0233 143.798C44.5625 143.798 43.3783 144.979 43.3783 146.436C43.3783 147.893 44.5625 149.074 46.0233 149.074Z" fill="#3F3D56"/>
<path d="M37.2947 151.976C38.7555 151.976 39.9397 150.795 39.9397 149.338C39.9397 147.881 38.7555 146.7 37.2947 146.7C35.8339 146.7 34.6497 147.881 34.6497 149.338C34.6497 150.795 35.8339 151.976 37.2947 151.976Z" fill="#3F3D56"/>
<path d="M43.3783 160.418C44.8391 160.418 46.0233 159.237 46.0233 157.78C46.0233 156.323 44.8391 155.142 43.3783 155.142C41.9175 155.142 40.7332 156.323 40.7332 157.78C40.7332 159.237 41.9175 160.418 43.3783 160.418Z" fill="#3F3D56"/>
<path d="M15.6056 112.406C17.0664 112.406 18.2506 111.225 18.2506 109.768C18.2506 108.311 17.0664 107.13 15.6056 107.13C14.1448 107.13 12.9606 108.311 12.9606 109.768C12.9606 111.225 14.1448 112.406 15.6056 112.406Z" fill="#3F3D56"/>
<path d="M135.425 175.982C141.036 181.981 134.943 202.955 67.7124 187.325C31.2922 178.858 0 179.041 0 175.982C0 172.922 30.3159 176.245 67.7124 176.245C105.109 176.245 133.332 173.744 135.425 175.982Z" fill="#3F3D56"/>
<path opacity="0.1" d="M135.425 175.982C141.036 181.981 134.943 202.955 67.7124 187.325C31.2922 178.858 0 179.041 0 175.982C0 172.922 30.3159 176.245 67.7124 176.245C105.109 176.245 133.332 173.744 135.425 175.982Z" fill="black"/>
<path d="M135.425 175.982C141.036 181.981 134.943 197.151 67.7124 181.522C31.2922 173.054 0 179.041 0 175.982C0 172.922 30.3159 170.442 67.7124 170.442C105.109 170.442 133.332 173.744 135.425 175.982Z" fill="#3F3D56"/>
<path d="M65.0068 41.9707H68.0494C69.0085 41.9707 69.9582 42.1591 70.8443 42.5252C71.7304 42.8912 72.5355 43.4278 73.2137 44.1042C73.8919 44.7805 74.4298 45.5835 74.7969 46.4673C75.1639 47.351 75.3528 48.2982 75.3528 49.2548V59.5733H57.7034V49.2548C57.7034 47.3229 58.4729 45.4702 59.8426 44.1042C61.2122 42.7381 63.0699 41.9707 65.0069 41.9707H65.0068Z" fill="#2F2E41"/>
<path d="M63.3005 56.171C63.3005 56.171 64.0405 62.0753 62.3755 62.4443C60.7105 62.8133 59.9706 65.0274 59.9706 65.0274L65.5205 68.5331L71.2555 67.426L70.7005 63.1823C70.7005 63.1823 69.2205 58.9386 69.9605 56.171C70.7005 53.4033 63.3005 56.171 63.3005 56.171Z" fill="#A0616A"/>
<path opacity="0.1" d="M63.3005 56.171C63.3005 56.171 64.0405 62.0753 62.3755 62.4443C60.7105 62.8133 59.9706 65.0274 59.9706 65.0274L65.5205 68.5331L71.2555 67.426L70.7005 63.1823C70.7005 63.1823 69.2205 58.9386 69.9605 56.171C70.7005 53.4033 63.3005 56.171 63.3005 56.171Z" fill="black"/>
<path d="M55.9006 124.624L57.3806 134.218C57.3806 134.218 57.0106 143.997 59.6006 152.669L62.1905 161.341L64.7805 158.389L65.5205 146.58C65.5205 146.58 65.7055 142.337 64.9655 139.015L65.5205 123.517L55.9006 124.624Z" fill="#A0616A"/>
<path d="M69.5905 122.963L70.8855 139.753C70.8855 139.753 70.3305 157.65 70.1455 158.204C69.9605 158.758 73.8455 159.496 73.8455 159.496C73.8455 159.496 79.7654 145.473 77.9154 134.402C77.9154 134.402 76.8054 124.992 78.2854 122.594C79.7654 120.195 69.5905 122.963 69.5905 122.963Z" fill="#A0616A"/>
<path d="M66.4455 59.1231C70.0215 59.1231 72.9205 56.2319 72.9205 52.6653C72.9205 49.0988 70.0215 46.2075 66.4455 46.2075C62.8695 46.2075 59.9706 49.0988 59.9706 52.6653C59.9706 56.2319 62.8695 59.1231 66.4455 59.1231Z" fill="#A0616A"/>
<path d="M61.2655 63.9204C61.2655 63.9204 62.0055 66.6881 65.5205 66.5036C69.0355 66.3191 70.7005 63.1824 70.7005 63.1824C70.7005 63.1824 74.9555 65.3965 76.9905 65.212L76.4355 74.2529C76.4355 74.2529 72.9205 83.8474 73.6605 86.0615C74.4005 88.2756 89.3854 111.524 87.5354 120.565C87.5354 120.565 89.3854 123.148 82.3554 123.701C75.3255 124.255 75.5105 122.963 69.7755 125.546C64.0405 128.129 56.0856 126.653 54.2356 126.284C52.3856 125.915 45.9106 124.808 45.9106 124.808C45.9106 124.808 47.3906 97.501 55.9006 88.2756L55.7156 71.6698L54.9756 65.3965C54.9756 65.3965 60.9447 62.4444 61.1051 63.1824L61.2655 63.9204Z" fill="#2F2E41"/>
<path d="M88.6454 76.2822C88.6454 76.2822 98.0803 82.1865 94.3804 84.5851C90.6804 86.9837 77.4705 93.0285 77.4705 93.0285C77.4705 93.0285 67.3705 88.2753 69.9605 86.4302C72.5505 84.5851 76.9905 89.7514 76.9905 89.7514L88.4604 82.9245L85.5004 79.6034L88.6454 76.2822Z" fill="#A0616A"/>
<path d="M50.1656 81.2642V108.202C50.1656 108.202 49.2406 118.535 52.7556 117.797C56.2705 117.059 53.4956 107.833 53.4956 107.833L54.6056 91.9657V83.1092L50.1656 81.2642Z" fill="#A0616A"/>
<path d="M65.3355 153.96C65.3355 153.96 63.6705 157.466 60.1555 155.437C60.1555 155.437 61.0805 158.573 61.0805 159.311C61.0805 160.049 62.0055 163.924 62.3755 164.293C62.7455 164.662 62.3755 172.78 64.2255 173.149C66.0755 173.518 67.7405 168.906 67.7405 167.245C67.7405 165.584 67.1855 160.234 67.1855 160.234C67.1855 160.234 67.5555 156.728 65.5205 155.621L65.3355 153.96Z" fill="#2F2E41"/>
<path d="M74.9555 158.02L69.7755 157.282L68.6655 161.71C68.6655 161.71 65.7055 169.644 65.5205 170.935C65.3355 172.227 62.0055 177.578 64.9655 177.578C67.9255 177.578 70.8855 177.762 71.4405 176.102C71.9955 174.441 73.1055 168.721 74.0305 166.692C74.9555 164.662 73.6605 162.632 73.6605 162.632L74.9555 158.02Z" fill="#2F2E41"/>
<path d="M75.3255 65.9499L76.9905 65.2119C76.9905 65.2119 78.6555 65.2119 81.2454 68.1641C83.8354 71.1162 90.6804 77.0205 90.6804 77.0205C90.6804 77.0205 86.0554 81.6332 84.9454 81.2642C83.8354 80.8952 75.3255 72.7768 75.3255 72.7768V65.9499Z" fill="#2F2E41"/>
<path d="M55.9006 65.3965H54.9756C54.9756 65.3965 51.0906 65.7655 50.5356 70.5627C49.9806 75.36 49.0556 81.0797 48.6856 81.6333C48.3156 82.1868 53.4956 84.5854 54.4206 84.5854C55.3456 84.5854 56.8256 70.1937 56.8256 70.1937L55.9006 65.3965Z" fill="#2F2E41"/>
<path d="M71.2575 49.7279H62.3465L60.3291 45.1035H72.7707L71.2575 49.7279Z" fill="#2F2E41"/>
<path d="M60.2524 53.1123C60.4905 53.0435 60.5343 52.4745 60.3504 51.8415C60.1665 51.2084 59.8244 50.751 59.5864 50.8198C59.3484 50.8886 59.3045 51.4575 59.4884 52.0906C59.6724 52.7236 60.0144 53.1811 60.2524 53.1123Z" fill="#A0616A"/>
<path d="M73.2332 52.4593C73.4172 51.8263 73.3733 51.2573 73.1353 51.1885C72.8973 51.1197 72.5552 51.5771 72.3713 52.2102C72.1873 52.8433 72.2312 53.4122 72.4692 53.481C72.7072 53.5498 73.0493 53.0924 73.2332 52.4593Z" fill="#A0616A"/>
<path d="M255.999 56.4357L153.697 -0.000976562L121.179 58.6321L223.481 115.069L255.999 56.4357Z" fill="#F2F2F2"/>
<path d="M157.611 47.8965H118.729V98.81H157.611V47.8965Z" fill="#A740A8"/>
<path d="M146.899 55.9424H129.442V73.3532H146.899V55.9424Z" fill="#3F3D56"/>
<path d="M153.511 77.0464H122.829V79.1568H153.511V77.0464Z" fill="#3F3D56"/>
<path d="M153.511 82.8501H122.829V84.9605H153.511V82.8501Z" fill="#3F3D56"/>
<path d="M153.511 88.6533H122.829V90.7637H153.511V88.6533Z" fill="#3F3D56"/>
<path d="M240.136 92.4785H201.254V143.392H240.136V92.4785Z" fill="#A740A8"/>
<path d="M234.449 99.2056H206.941V102.371H234.449V99.2056Z" fill="#3F3D56"/>
<path d="M234.449 106.064H206.941V109.23H234.449V106.064Z" fill="#3F3D56"/>
<path d="M234.449 112.923H206.941V116.089H234.449V112.923Z" fill="#3F3D56"/>
<path d="M234.449 119.782H206.941V122.948H234.449V119.782Z" fill="#3F3D56"/>
<path d="M234.449 126.641H206.941V129.807H234.449V126.641Z" fill="#3F3D56"/>
<path d="M234.449 133.5H206.941V136.665H234.449V133.5Z" fill="#3F3D56"/>
<path d="M228.762 6.74365H189.88V57.6572H228.762V6.74365Z" fill="#A740A8"/>
<path d="M223.075 23.7588H195.567V26.9244H223.075V23.7588Z" fill="#3F3D56"/>
<path d="M223.075 30.6172H195.567V33.7828H223.075V30.6172Z" fill="#3F3D56"/>
<path d="M223.075 37.4761H195.567V40.6417H223.075V37.4761Z" fill="#3F3D56"/>
<path d="M228.009 11.3814C230.603 11.3814 232.705 9.28095 232.705 6.68995C232.705 4.09896 230.603 1.99854 228.009 1.99854C225.416 1.99854 223.314 4.09896 223.314 6.68995C223.314 9.28095 225.416 11.3814 228.009 11.3814Z" fill="white"/>
<path d="M228.009 1.19922C226.9 1.19922 225.815 1.52746 224.892 2.14242C223.969 2.75739 223.25 3.63147 222.825 4.65412C222.4 5.67677 222.289 6.80207 222.506 7.88771C222.722 8.97335 223.257 9.97058 224.042 10.7533C224.826 11.536 225.826 12.069 226.915 12.285C228.003 12.5009 229.132 12.3901 230.157 11.9665C231.182 11.5429 232.059 10.8256 232.675 9.90519C233.292 8.98482 233.621 7.90277 233.621 6.79586C233.617 5.31287 233.024 3.89187 231.973 2.84323C230.921 1.7946 229.496 1.20356 228.009 1.19922ZM226.857 9.77984L223.982 6.91156L224.788 6.10703L226.86 8.17348L231.233 3.81187L232.04 4.61639L226.857 9.77983V9.77984Z" fill="#57B894"/>
<path d="M240.177 96.0616C242.77 96.0616 244.872 93.9611 244.872 91.3701C244.872 88.7791 242.77 86.6787 240.177 86.6787C237.583 86.6787 235.481 88.7791 235.481 91.3701C235.481 93.9611 237.583 96.0616 240.177 96.0616Z" fill="white"/>
<path d="M240.177 85.8794C239.067 85.8794 237.982 86.2076 237.059 86.8226C236.136 87.4376 235.417 88.3116 234.992 89.3343C234.567 90.3569 234.456 91.4822 234.673 92.5679C234.889 93.6535 235.424 94.6507 236.209 95.4334C236.993 96.2162 237.993 96.7492 239.082 96.9651C240.17 97.1811 241.299 97.0702 242.324 96.6467C243.349 96.2231 244.226 95.5057 244.842 94.5854C245.459 93.665 245.788 92.5829 245.788 91.476C245.784 89.993 245.191 88.572 244.14 87.5234C243.088 86.4748 241.663 85.8837 240.177 85.8794ZM239.025 94.46L236.149 91.5917L236.955 90.7872L239.027 92.8537L243.401 88.4921L244.207 89.2966L239.025 94.46Z" fill="#57B894"/>
<path d="M157.652 52.0069C160.245 52.0069 162.347 49.9064 162.347 47.3154C162.347 44.7244 160.245 42.624 157.652 42.624C155.059 42.624 152.957 44.7244 152.957 47.3154C152.957 49.9064 155.059 52.0069 157.652 52.0069Z" fill="white"/>
<path d="M157.652 41.8247C156.542 41.8247 155.457 42.1529 154.535 42.7679C153.612 43.3829 152.892 44.257 152.468 45.2796C152.043 46.3023 151.932 47.4276 152.148 48.5132C152.365 49.5988 152.899 50.5961 153.684 51.3788C154.469 52.1615 155.469 52.6945 156.557 52.9104C157.646 53.1264 158.774 53.0156 159.8 52.592C160.825 52.1684 161.701 51.451 162.318 50.5307C162.934 49.6103 163.264 48.5283 163.264 47.4213C163.259 45.9384 162.667 44.5174 161.615 43.4687C160.564 42.4201 159.139 41.829 157.652 41.8247ZM156.5 50.4053L153.624 47.537L154.431 46.7325L156.503 48.799L160.876 44.4374L161.683 45.2419L156.5 50.4053V50.4053Z" fill="#57B894"/>
</g>
<defs>
<clipPath id="clip0">
<rect width="256" height="193" fill="white"/>
</clipPath>
</defs>
</svg>
