<svg width="257" height="188" viewBox="0 0 257 188" fill="none" xmlns="http://www.w3.org/2000/svg">
<g clip-path="url(#clip0)">
<path d="M160.997 13.2393H108.385C107.453 13.2393 106.699 13.9954 106.699 14.9281V19.0268C106.699 19.9595 107.453 20.7156 108.385 20.7156H160.997C161.928 20.7156 162.683 19.9595 162.683 19.0268V14.9281C162.683 13.9954 161.928 13.2393 160.997 13.2393Z" fill="#A740A8"/>
<path d="M241.863 0.155762H101.542C100.611 0.155762 99.856 0.911868 99.856 1.84457V163.882C99.856 164.815 100.611 165.571 101.542 165.571H241.863C242.794 165.571 243.549 164.815 243.549 163.882V1.84457C243.549 0.911868 242.794 0.155762 241.863 0.155762Z" stroke="#3F3D56" stroke-miterlimit="10"/>
<path d="M162.552 11.0586H109.94C109.009 11.0586 108.254 11.8147 108.254 12.7474V16.8462C108.254 17.7789 109.009 18.535 109.94 18.535H162.552C163.483 18.535 164.238 17.7789 164.238 16.8462V12.7474C164.238 11.8147 163.483 11.0586 162.552 11.0586Z" stroke="#3F3D56" stroke-miterlimit="10"/>
<path d="M224.601 38.4722H115.694C114.763 38.4722 114.008 39.2283 114.008 40.161V40.5216C114.008 41.4543 114.763 42.2104 115.694 42.2104H224.601C225.532 42.2104 226.287 41.4543 226.287 40.5216V40.161C226.287 39.2283 225.532 38.4722 224.601 38.4722Z" fill="#F2F2F2"/>
<path d="M224.756 50.3101H115.849C114.918 50.3101 114.163 51.0662 114.163 51.9989V52.3594C114.163 53.2921 114.918 54.0483 115.849 54.0483H224.756C225.688 54.0483 226.442 53.2921 226.442 52.3594V51.9989C226.442 51.0662 225.688 50.3101 224.756 50.3101Z" fill="#F2F2F2"/>
<path d="M224.912 62.1475H116.005C115.074 62.1475 114.319 62.9036 114.319 63.8363V64.1968C114.319 65.1295 115.074 65.8856 116.005 65.8856H224.912C225.843 65.8856 226.598 65.1295 226.598 64.1968V63.8363C226.598 62.9036 225.843 62.1475 224.912 62.1475Z" fill="#F2F2F2"/>
<path d="M226.156 36.9146H117.249C116.318 36.9146 115.563 37.6707 115.563 38.6034V38.9639C115.563 39.8966 116.318 40.6527 117.249 40.6527H226.156C227.087 40.6527 227.842 39.8966 227.842 38.9639V38.6034C227.842 37.6707 227.087 36.9146 226.156 36.9146Z" stroke="#3F3D56" stroke-miterlimit="10"/>
<path d="M226.311 48.7524H117.404C116.473 48.7524 115.718 49.5085 115.718 50.4412V50.8018C115.718 51.7345 116.473 52.4906 117.404 52.4906H226.311C227.243 52.4906 227.998 51.7345 227.998 50.8018V50.4412C227.998 49.5085 227.243 48.7524 226.311 48.7524Z" stroke="#3F3D56" stroke-miterlimit="10"/>
<path d="M226.467 60.5898H117.56C116.629 60.5898 115.874 61.3459 115.874 62.2786V62.6392C115.874 63.5719 116.629 64.328 117.56 64.328H226.467C227.398 64.328 228.153 63.5719 228.153 62.6392V62.2786C228.153 61.3459 227.398 60.5898 226.467 60.5898Z" stroke="#3F3D56" stroke-miterlimit="10"/>
<path d="M189.628 96.1025H151.6C151.198 96.1025 150.813 96.2622 150.53 96.5465C150.246 96.8308 150.086 97.2164 150.086 97.6184V102.686C150.086 103.088 150.246 103.474 150.53 103.758C150.813 104.042 151.198 104.202 151.6 104.202H153.663V129.944C153.663 130.346 153.822 130.731 154.106 131.016C154.39 131.3 154.775 131.46 155.177 131.46H183.874C184.275 131.46 184.66 131.3 184.944 131.016C185.228 130.731 185.387 130.346 185.387 129.944V104.202H189.628C190.029 104.202 190.414 104.042 190.698 103.758C190.982 103.474 191.141 103.088 191.141 102.686V97.6184C191.141 97.2164 190.982 96.8308 190.698 96.5465C190.414 96.2622 190.029 96.1025 189.628 96.1025Z" fill="#F2F2F2"/>
<path d="M156.773 102.645H188.498V127.271C188.498 128.052 188.188 128.8 187.637 129.352C187.086 129.904 186.339 130.214 185.56 130.214H159.711C158.932 130.214 158.185 129.904 157.634 129.352C157.083 128.8 156.773 128.052 156.773 127.271V102.645Z" stroke="#3F3D56" stroke-miterlimit="10"/>
<path d="M190.926 94.5449H154.656C153.335 94.5449 152.263 95.6179 152.263 96.9414V100.248C152.263 101.571 153.335 102.644 154.656 102.644H190.926C192.247 102.644 193.318 101.571 193.318 100.248V96.9414C193.318 95.6179 192.247 94.5449 190.926 94.5449Z" stroke="#3F3D56" stroke-miterlimit="10"/>
<path d="M174.657 95.6353H167.037V130.214H174.657V95.6353Z" fill="#A740A8"/>
<path d="M175.901 94.5449H169.681V130.058H175.901V94.5449Z" stroke="#3F3D56" stroke-miterlimit="10"/>
<path d="M169.943 86.5137C172.063 90.1547 171.498 94.4404 171.498 94.4404C171.498 94.4404 167.496 92.8229 165.375 89.1818C163.255 85.5408 162.559 81.9918 163.82 81.2551C165.081 80.5183 167.822 82.8726 169.943 86.5137Z" fill="#A740A8"/>
<path d="M174.92 86.5137C172.8 90.1547 173.364 94.4404 173.364 94.4404C173.364 94.4404 177.367 92.8229 179.487 89.1818C181.607 85.5408 182.304 81.9918 181.043 81.2551C179.781 80.5183 177.04 82.8726 174.92 86.5137Z" fill="#A740A8"/>
<path d="M170.876 86.5137C172.996 90.1547 172.431 94.4404 172.431 94.4404C172.431 94.4404 168.429 92.8229 166.309 89.1818C164.188 85.5408 163.492 81.9918 164.753 81.2551C166.014 80.5183 168.755 82.8726 170.876 86.5137Z" stroke="#3F3D56" stroke-miterlimit="10"/>
<path d="M173.987 86.5137C171.867 90.1547 172.431 94.4404 172.431 94.4404C172.431 94.4404 176.434 92.8229 178.554 89.1818C180.674 85.5408 181.371 81.9918 180.11 81.2551C178.848 80.5183 176.107 82.8726 173.987 86.5137Z" stroke="#3F3D56" stroke-miterlimit="10"/>
<path d="M47.9553 21.6787C47.9553 21.6787 54.2411 33.5148 53.2354 39.8105C52.2297 46.1063 51.224 51.6466 53.2354 54.6685C55.2469 57.6905 42.4238 54.1649 42.4238 54.1649V36.5367L47.9553 21.6787Z" fill="#FF6584"/>
<path d="M61.4069 53.5353C61.4069 53.5353 46.1953 70.5339 41.4181 66.2528C36.6409 61.9717 32.2408 51.7725 35.7609 48.4987C37.6617 46.7309 37.8025 43.3488 37.5309 40.6089C37.389 39.1913 37.1334 37.7874 36.7666 36.4109C36.7666 36.4109 44.3095 34.1444 44.561 38.6773C44.5784 39.2101 44.7186 39.7315 44.9708 40.2009C46.4115 42.762 51.0982 41.4475 51.0982 41.4475L61.4069 53.5353Z" fill="#FBBEBE"/>
<path d="M50.0925 42.2035L51.0982 41.448C55.1154 41.2386 59.1337 41.838 62.9155 43.2108C68.9499 45.4773 79.5101 47.4919 82.5273 46.7364C85.5444 45.9809 92.836 44.4699 92.836 44.4699C92.836 44.4699 100.882 41.1961 102.642 45.2254C104.402 49.2547 91.8302 49.2547 91.8302 49.2547C91.8302 49.2547 82.9044 52.9063 76.6186 52.4026C70.3328 51.8989 62.1612 54.795 58.3898 51.773C54.6183 48.7511 50.0925 42.2035 50.0925 42.2035Z" fill="#FBBEBE"/>
<path d="M20.1721 138.402H13.3834L10.8691 143.439L14.1377 146.965C14.1377 146.965 20.4235 146.209 22.1835 144.194C23.9436 142.18 20.1721 138.402 20.1721 138.402Z" fill="#FBBEBE"/>
<path d="M19.1304 138.403C19.1304 138.403 21.9321 137.144 20.1721 135.633C18.412 134.122 16.9034 132.107 14.1377 134.122C11.3719 136.136 -2.2054 146.461 0.308927 149.987C2.82325 153.513 3.57754 152.757 4.8347 152.002C6.09186 151.246 10.1148 148.224 13.3834 148.224C16.652 148.224 15.3949 143.943 14.1377 142.684C12.8805 141.425 18.0887 138.403 19.1304 138.403Z" fill="#3F3D56"/>
<path d="M45.3153 170.637L42.5495 175.421L45.3153 178.443H53.1097C53.1097 178.443 50.5954 173.407 51.6011 171.14C52.6068 168.874 45.3153 170.637 45.3153 170.637Z" fill="#FBBEBE"/>
<path d="M53.1097 174.163C53.1097 174.163 50.3439 177.185 48.5839 176.681C46.8239 176.177 43.7643 173.32 43.7643 173.32C43.7643 173.32 39.2809 177.688 41.2924 179.703C43.3038 181.718 51.3497 185.495 53.6126 187.006C55.8754 188.517 63.4184 187.51 63.167 185.747C62.9155 183.984 59.1441 181.969 57.384 179.703C55.624 177.436 53.1097 174.163 53.1097 174.163Z" fill="#3F3D56"/>
<path d="M66.4356 91.5621C66.4356 91.5621 71.9671 108.938 64.4241 129.337C64.4241 129.337 57.6355 159.305 55.1212 165.349C52.6068 171.393 52.6068 173.911 52.6068 173.911C52.6068 173.911 43.0524 174.163 43.8067 172.148C43.8067 172.148 47.0753 162.327 47.0753 158.549C47.0753 154.772 52.3554 134.373 52.3554 134.373L54.1154 90.8066L66.4356 91.5621Z" fill="#3F3D56"/>
<path opacity="0.1" d="M66.4356 91.5621C66.4356 91.5621 71.9671 108.938 64.4241 129.337C64.4241 129.337 57.6355 159.305 55.1212 165.349C52.6068 171.393 52.6068 173.911 52.6068 173.911C52.6068 173.911 43.0524 174.163 43.8067 172.148C43.8067 172.148 47.0753 162.327 47.0753 158.549C47.0753 154.772 52.3554 134.373 52.3554 134.373L54.1154 90.8066L66.4356 91.5621Z" fill="black"/>
<path d="M65.1784 92.8209C65.1784 92.8209 65.1784 100.879 59.8984 104.405C59.8984 104.405 63.9213 132.61 58.8926 137.899C53.864 143.187 45.5667 140.921 45.5667 140.921C45.5667 140.921 31.738 141.676 21.4292 145.705C21.4292 145.705 13.3834 143.439 19.9206 137.647C19.9206 137.647 27.9665 135.632 30.4808 133.869C32.9951 132.107 44.561 128.581 47.5782 130.092C47.5782 130.092 47.3268 125.811 46.321 122.789C45.4145 120.065 43.8067 111.708 43.8067 111.708C43.8067 111.708 36.7666 98.3612 43.8067 91.3099C50.8468 84.2586 65.1784 92.8209 65.1784 92.8209Z" fill="#3F3D56"/>
<path opacity="0.1" d="M44.9708 40.2009C43.8254 40.7776 42.5735 41.1115 41.2934 41.1817C40.0132 41.2519 38.7324 41.0569 37.531 40.6089C37.389 39.1913 37.1334 37.7874 36.7666 36.4109C36.7666 36.4109 44.3096 34.1444 44.561 38.6773C44.5784 39.2101 44.7187 39.7315 44.9708 40.2009Z" fill="black"/>
<path d="M40.7895 40.4402C45.9274 40.4402 50.0925 36.2685 50.0925 31.1224C50.0925 25.9764 45.9274 21.8047 40.7895 21.8047C35.6516 21.8047 31.4865 25.9764 31.4865 31.1224C31.4865 36.2685 35.6516 40.4402 40.7895 40.4402Z" fill="#FBBEBE"/>
<path d="M40.2867 65.8751C40.2867 65.8751 50.8468 73.43 46.0696 81.4886C41.2924 89.5472 42.801 94.0801 42.801 94.0801C42.801 94.0801 51.8525 94.0801 54.8697 96.0948C57.8869 98.1094 67.4413 94.5838 67.4413 94.5838C67.4413 94.5838 68.9499 84.5106 66.9385 79.7258C64.927 74.941 63.9213 67.3861 64.6756 65.8751C65.4299 64.3641 67.4413 57.3128 62.6641 53.2835L59.9443 51.8203C59.9443 51.8203 61.6584 59.0757 50.0925 54.5427C50.0925 54.5427 47.5782 69.4007 40.2867 65.8751Z" fill="#A740A8"/>
<path d="M50.2234 41.6343L50.4846 41.9087L60.0141 51.9037L60.3083 52.2112L60.3257 52.2688L60.517 52.8657L60.8989 54.0722L59.3979 52.4049L50.1553 42.1554L49.7481 41.7047L50.2234 41.6343Z" fill="#A740A8"/>
<path d="M50.8907 55.3087C50.8907 55.3087 43.0524 48.4989 37.5209 50.2617C31.9894 52.0245 40.2021 67.0074 41.8787 67.1968L42.5495 67.1343C42.5495 67.1343 32.2408 54.5428 38.0237 50.7653C38.0237 50.7653 45.3153 51.5208 50.8468 56.0538L50.8907 55.3087Z" fill="#A740A8"/>
<path d="M46.0696 53.7876L64.4241 59.5798L94.8474 61.3426C94.8474 61.3426 103.648 61.5944 102.139 65.6237C100.63 69.653 92.5845 66.631 92.5845 66.631L66.4356 67.1347C66.4356 67.1347 44.8124 64.8682 43.0524 63.609C41.2924 62.3499 44.0581 53.0322 46.0696 53.7876Z" fill="#FBBEBE"/>
<path d="M38.0238 38.9294C38.0238 38.9294 37.018 36.9147 39.0295 34.6483C40.0535 33.4944 40.9472 31.0351 41.5779 28.8987C41.868 27.9142 42.5066 27.0694 43.374 26.5227C44.2414 25.9759 45.278 25.7646 46.2898 25.9284C48.0899 26.2194 49.9881 26.3123 50.5954 25.5824C51.8525 24.0714 50.3439 16.0128 40.5381 17.7756C30.7322 19.5384 24.4464 15.5091 24.4464 25.0787C24.4464 34.6483 30.4808 37.4184 26.2064 46.988C21.9321 56.5575 13.6348 57.5649 18.412 63.8606C23.1893 70.1564 35.7609 71.9192 36.5152 69.6527C37.2695 67.3863 33.498 58.5722 36.0123 55.0465C38.5266 51.5209 42.801 47.7435 41.5438 45.477C40.2866 43.2105 38.0238 38.9294 38.0238 38.9294Z" fill="#FF6584"/>
<path d="M8.25977 187.844H106.543" stroke="#3F3D56" stroke-miterlimit="10"/>
<path d="M235.997 51.5352C236.939 51.8783 237.948 51.9975 238.944 51.8834C239.94 51.7693 240.896 51.4251 241.737 50.8779C242.577 50.3306 243.279 49.5953 243.788 48.7299C244.296 47.8646 244.597 46.8927 244.666 45.891C244.736 44.8894 244.572 43.8852 244.188 42.9577C243.804 42.0303 243.21 41.2049 242.453 40.5465C241.696 39.8882 240.797 39.4149 239.826 39.1641C238.855 38.9132 237.84 38.8916 236.859 39.101L237.021 42.438L235.445 39.5781C233.898 40.3062 232.703 41.6197 232.122 43.2299C231.916 43.794 231.79 44.3844 231.75 44.9837C231.65 46.3898 232.011 47.79 232.777 48.9723C233.544 50.1545 234.674 51.0543 235.997 51.5352Z" fill="#57B894"/>
<path d="M243.797 90.2392C243.24 87.4012 245.652 84.8852 248.033 83.2498C250.415 81.6145 253.198 80.0076 254.01 77.2323C255.178 73.2437 251.699 69.5909 248.992 66.4408C246.983 64.1032 245.258 61.5352 243.853 58.7908C243.289 57.6904 242.772 56.54 242.623 55.3124C242.41 53.5444 242.977 51.785 243.548 50.0986C245.452 44.4806 247.487 38.9096 249.653 33.3857" stroke="#3F3D56" stroke-miterlimit="10"/>
<path d="M236.264 50.6763C237.206 51.0194 238.215 51.1386 239.211 51.0245C240.207 50.9104 241.163 50.5662 242.003 50.019C242.844 49.4717 243.546 48.7365 244.054 47.8711C244.563 47.0057 244.864 46.0338 244.933 45.0322C245.002 44.0305 244.839 43.0263 244.455 42.0989C244.07 41.1714 243.476 40.346 242.72 39.6876C241.963 39.0293 241.063 38.5561 240.093 38.3052C239.122 38.0543 238.106 38.0327 237.126 38.2421L237.288 41.5791L235.711 38.7193C234.164 39.4473 232.969 40.7608 232.389 42.371C232.182 42.9351 232.057 43.5255 232.016 44.1248C231.917 45.5309 232.278 46.9311 233.044 48.1134C233.811 49.2956 234.941 50.1954 236.264 50.6763V50.6763Z" stroke="#3F3D56" stroke-miterlimit="10"/>
<path d="M243.006 32.2331C243.375 31.2113 243.996 30.2991 244.81 29.5806C245.624 28.8622 246.606 28.3605 247.665 28.1219L248.198 31.2943L249.186 27.9624C250.558 27.9828 251.888 28.4393 252.984 29.2661C254.08 30.0929 254.885 31.2472 255.284 32.5623C255.682 33.8774 255.653 35.2853 255.2 36.5826C254.747 37.88 253.895 38.9998 252.766 39.7802C251.636 40.5607 250.288 40.9614 248.917 40.9247C247.545 40.8879 246.221 40.4155 245.135 39.5756C244.048 38.7358 243.257 37.572 242.874 36.2522C242.492 34.9324 242.538 33.525 243.006 32.2331Z" fill="#57B894"/>
<path d="M243.361 31.0876C243.731 30.0658 244.351 29.1536 245.166 28.4351C245.98 27.7167 246.962 27.215 248.02 26.9764L248.553 30.1488L249.541 26.8169C250.913 26.8373 252.243 27.2938 253.339 28.1206C254.435 28.9474 255.241 30.1017 255.639 31.4168C256.037 32.7319 256.008 34.1398 255.555 35.4372C255.103 36.7345 254.25 37.8543 253.121 38.6347C251.991 39.4152 250.644 39.8159 249.272 39.7792C247.9 39.7424 246.576 39.27 245.49 38.4301C244.404 37.5903 243.612 36.4265 243.23 35.1067C242.847 33.7869 242.893 32.3795 243.361 31.0876V31.0876Z" stroke="#3F3D56" stroke-miterlimit="10"/>
<path d="M247.856 66.505C249.35 67.0479 250.991 67.0211 252.467 66.4297C253.943 65.8383 255.149 64.7238 255.857 63.2984C256.565 61.8731 256.725 60.2367 256.306 58.7011C255.887 57.1655 254.918 55.838 253.584 54.9718L252.825 57.5323L252.287 54.3225C252.281 54.3199 252.276 54.3178 252.27 54.3162C251.471 54.0253 250.622 53.8949 249.773 53.9326C248.923 53.9703 248.09 54.1753 247.319 54.5358C246.549 54.8963 245.857 55.4054 245.283 56.0338C244.709 56.6623 244.264 57.3979 243.974 58.1985C243.684 58.9991 243.555 59.8491 243.593 60.7C243.631 61.5508 243.836 62.3858 244.197 63.1572C244.557 63.9286 245.066 64.6213 245.693 65.1957C246.321 65.7701 247.056 66.215 247.855 66.505H247.856Z" fill="#57B894"/>
<path d="M248.163 65.3448C249.658 65.8877 251.299 65.8609 252.775 65.2695C254.251 64.6782 255.457 63.5636 256.165 62.1383C256.873 60.7129 257.033 59.0765 256.614 57.5409C256.195 56.0053 255.226 54.6779 253.892 53.8117L253.133 56.3721L252.595 53.1623C252.589 53.1598 252.584 53.1577 252.578 53.156C251.779 52.8651 250.93 52.7348 250.081 52.7725C249.231 52.8101 248.398 53.0151 247.627 53.3756C246.857 53.7362 246.165 54.2452 245.591 54.8737C245.017 55.5021 244.572 56.2377 244.282 57.0383C243.992 57.839 243.863 58.689 243.901 59.5398C243.939 60.3906 244.144 61.2256 244.505 61.997C244.865 62.7684 245.374 63.4611 246.001 64.0355C246.629 64.61 247.364 65.0549 248.163 65.3448H248.163Z" stroke="#3F3D56" stroke-miterlimit="10"/>
<path d="M241.117 77.272C241.374 78.7362 242.125 80.0674 243.246 81.0423C244.366 82.0172 245.787 82.5766 247.271 82.6267C248.754 82.6767 250.21 82.2143 251.393 81.3171C252.577 80.4199 253.416 79.1424 253.771 77.6988C254.126 76.2553 253.974 74.7334 253.341 73.3886C252.709 72.0438 251.634 70.9577 250.296 70.3125C248.959 69.6673 247.441 69.5022 245.997 69.845C244.553 70.1878 243.27 71.0175 242.364 72.1951L245.248 76.5428L241.307 74.2352C241.002 75.2175 240.936 76.259 241.117 77.272Z" fill="#57B894"/>
<path d="M241.383 76.4131C241.64 77.8773 242.392 79.2085 243.512 80.1834C244.633 81.1583 246.054 81.7177 247.537 81.7678C249.021 81.8178 250.476 81.3555 251.66 80.4582C252.843 79.561 253.683 78.2835 254.037 76.8399C254.392 75.3964 254.24 73.8746 253.608 72.5297C252.975 71.1849 251.9 70.0988 250.563 69.4536C249.226 68.8084 247.708 68.6434 246.264 68.9861C244.819 69.3289 243.537 70.1586 242.631 71.3362L245.515 75.6839L241.574 73.3763C241.268 74.3586 241.203 75.4001 241.383 76.4131V76.4131Z" stroke="#3F3D56" stroke-miterlimit="10"/>
</g>
<defs>
<clipPath id="clip0">
<rect width="257" height="188" fill="white"/>
</clipPath>
</defs>
</svg>
