<svg width="155" height="155" viewBox="0 0 155 155" fill="none" xmlns="http://www.w3.org/2000/svg">
<path d="M93.8477 57.5195C92.1766 57.5195 90.8203 58.8758 90.8203 60.5469C90.8203 62.218 92.1766 63.5742 93.8477 63.5742C95.5188 63.5742 96.875 62.218 96.875 60.5469C96.875 58.8758 95.5188 57.5195 93.8477 57.5195Z" fill="#B67CB7"/>
<path d="M151.452 134.329L111.043 93.92C117.626 84.0042 121.094 72.5215 121.094 60.5469C121.094 27.1613 93.9324 0 60.5469 0C27.1613 0 0 27.1613 0 60.5469C0 93.9324 27.1613 121.094 60.5469 121.094C72.5218 121.094 84.0046 117.626 93.92 111.044L105.089 122.213C105.091 122.214 105.092 122.216 105.094 122.218L134.329 151.452C136.617 153.74 139.657 155 142.891 155C146.124 155 149.164 153.74 151.451 151.453C153.74 149.167 155 146.126 155 142.891C155 139.655 153.74 136.615 151.452 134.329ZM92.4963 104.663C92.4963 104.664 92.4959 104.664 92.4956 104.664C83.1511 111.451 72.1038 115.039 60.5469 115.039C30.4999 115.039 6.05469 90.5939 6.05469 60.5469C6.05469 30.4999 30.4999 6.05469 60.5469 6.05469C90.5939 6.05469 115.039 30.4999 115.039 60.5469C115.039 72.1038 111.451 83.1511 104.664 92.4959C101.268 97.1741 97.1744 101.268 92.4963 104.663ZM98.8476 107.408C101.981 104.845 104.845 101.981 107.408 98.8476L115.997 107.436C113.385 110.519 110.519 113.385 107.436 115.997L98.8476 107.408ZM147.171 147.171C146.027 148.315 144.507 148.945 142.891 148.945C141.275 148.945 139.755 148.315 138.61 147.171L111.729 120.29C114.795 117.659 117.659 114.795 120.289 111.729L147.172 138.611C148.315 139.754 148.945 141.273 148.945 142.891C148.945 144.508 148.315 146.027 147.171 147.171Z" fill="#B67CB7"/>
<path d="M60.5469 12.1094C33.8381 12.1094 12.1094 33.8381 12.1094 60.5469C12.1094 87.2556 33.8381 108.984 60.5469 108.984C87.2556 108.984 108.984 87.2556 108.984 60.5469C108.984 33.8381 87.2556 12.1094 60.5469 12.1094ZM60.5469 102.93C37.177 102.93 18.1641 83.9168 18.1641 60.5469C18.1641 37.177 37.177 18.1641 60.5469 18.1641C83.9168 18.1641 102.93 37.177 102.93 60.5469C102.93 83.9168 83.9168 102.93 60.5469 102.93Z" fill="#B67CB7"/>
<path d="M94.4728 47.5514C91.866 40.7665 87.3271 34.9655 81.3462 30.776C75.2231 26.4862 68.0308 24.2188 60.5469 24.2188C58.8752 24.2188 57.5195 25.5744 57.5195 27.2461C57.5195 28.9178 58.8752 30.2734 60.5469 30.2734C72.989 30.2734 84.3512 38.0894 88.8211 49.7232C89.2836 50.9269 90.4307 51.6656 91.6477 51.6656C92.0085 51.6656 92.3758 51.6005 92.7327 51.4633C94.2933 50.8636 95.0725 49.1123 94.4728 47.5514Z" fill="#B67CB7"/>
</svg>
