<svg width="155" height="155" viewBox="0 0 155 155" fill="none" xmlns="http://www.w3.org/2000/svg">
<path d="M92.8622 94.4531H84.7656V77.5C84.7656 75.573 84.0001 73.725 82.6376 72.3624C81.275 70.9999 79.427 70.2344 77.5 70.2344C75.573 70.2344 73.725 70.9999 72.3624 72.3624C70.9998 73.725 70.2344 75.573 70.2344 77.5V105.56L68.6081 103.933C67.1904 102.515 65.2675 101.718 63.2625 101.718C61.2576 101.718 59.3347 102.515 57.917 103.933C56.4993 105.35 55.7028 107.273 55.7028 109.278C55.7028 111.283 56.4993 113.206 57.917 114.624L70.2344 126.94V130.781H67.8125C67.1702 130.781 66.5542 131.036 66.1 131.491C65.6458 131.945 65.3906 132.561 65.3906 133.203V150.156H70.2344V135.625H99.2969V150.156H104.141V133.203C104.141 132.561 103.885 131.945 103.431 131.491C102.977 131.036 102.361 130.781 101.719 130.781H99.2969V126.94L104.262 121.976C106.517 119.721 108.052 116.848 108.674 113.721C109.296 110.594 108.977 107.352 107.757 104.406C106.537 101.46 104.47 98.942 101.819 97.1704C99.168 95.3988 96.0509 94.4532 92.8622 94.4531ZM100.837 118.551L95.1624 124.226C94.7084 124.68 94.4533 125.295 94.4531 125.938V130.781H75.0781V125.938C75.0781 125.619 75.0155 125.305 74.8938 125.011C74.7721 124.717 74.5937 124.45 74.3688 124.225L61.3425 111.198C61.0866 110.947 60.8831 110.647 60.7437 110.317C60.6043 109.987 60.5317 109.632 60.5301 109.273C60.5285 108.915 60.5979 108.559 60.7345 108.228C60.871 107.896 61.0718 107.595 61.3254 107.341C61.579 107.087 61.8803 106.887 62.2119 106.75C62.5436 106.614 62.8989 106.544 63.2576 106.546C63.6162 106.547 63.971 106.62 64.3014 106.759C64.6318 106.899 64.9313 107.102 65.1826 107.358L70.9437 113.119C71.2824 113.458 71.7139 113.688 72.1837 113.782C72.6535 113.875 73.1405 113.827 73.5831 113.644C74.0256 113.461 74.4039 113.15 74.67 112.752C74.9361 112.354 75.0781 111.885 75.0781 111.406V77.5C75.0781 76.8577 75.3333 76.2417 75.7875 75.7875C76.2417 75.3333 76.8577 75.0781 77.5 75.0781C78.1423 75.0781 78.7583 75.3333 79.2125 75.7875C79.6667 76.2417 79.9219 76.8577 79.9219 77.5V96.875C79.9219 97.5173 80.177 98.1333 80.6312 98.5875C81.0854 99.0417 81.7014 99.2969 82.3437 99.2969H92.8622C95.093 99.2968 97.2737 99.9582 99.1285 101.198C100.983 102.437 102.429 104.198 103.283 106.259C104.136 108.32 104.36 110.588 103.924 112.776C103.489 114.964 102.415 116.974 100.837 118.551Z" fill="#B67CB7"/>
<path d="M94.4531 140.469H89.6094V145.312H94.4531V140.469Z" fill="#B67CB7"/>
<path d="M58.125 77.5001C58.1168 80.0792 58.6275 82.6336 59.6267 85.0113C60.6258 87.389 62.0931 89.5414 63.9411 91.3405L67.3317 87.8803C65.2697 85.8601 63.856 83.2715 63.2711 80.4447C62.6861 77.6179 62.9564 74.6809 64.0474 72.0083C65.1384 69.3357 67.0007 67.0486 69.3968 65.4387C71.7929 63.8287 74.6142 62.9689 77.5009 62.9689C80.3876 62.9689 83.2089 63.8287 85.605 65.4387C88.0011 67.0486 89.8634 69.3357 90.9544 72.0083C92.0454 74.6809 92.3156 77.6179 91.7307 80.4447C91.1457 83.2715 89.7321 85.8601 87.67 87.8803L91.0607 91.3405C93.3423 89.1047 95.0356 86.3394 95.99 83.2909C96.9444 80.2423 97.1303 77.0051 96.531 73.8674C95.9317 70.7296 94.5659 67.7887 92.5551 65.3065C90.5443 62.8243 87.951 60.8778 85.006 59.6402C82.061 58.4027 78.8557 57.9125 75.6755 58.2133C72.4952 58.5141 69.4387 59.5966 66.778 61.3644C64.1172 63.1322 61.9349 65.5304 60.4252 68.3456C58.9155 71.1608 58.1253 74.3056 58.125 77.5001Z" fill="#B67CB7"/>
<path d="M147.734 89.6094C148.147 89.6094 148.553 89.5038 148.914 89.3028C149.274 89.1017 149.578 88.8119 149.795 88.4607C150.012 88.1095 150.135 87.7087 150.154 87.2963C150.172 86.8839 150.085 86.4735 149.9 86.1043L145.313 76.9281V62.9688C145.313 62.3264 145.057 61.7104 144.603 61.2562C144.149 60.802 143.533 60.5469 142.891 60.5469H135.625V33.9062H147.734C148.147 33.9062 148.553 33.8007 148.914 33.5997C149.274 33.3986 149.578 33.1087 149.795 32.7576C150.012 32.4064 150.135 32.0056 150.154 31.5931C150.172 31.1807 150.085 30.7704 149.9 30.4012L145.313 21.225V7.26562C145.313 6.6233 145.057 6.00729 144.603 5.5531C144.149 5.09891 143.533 4.84375 142.891 4.84375H123.516C122.873 4.84375 122.257 5.09891 121.803 5.5531C121.349 6.00729 121.094 6.6233 121.094 7.26562V12.1094H89.6094V7.26562C89.6094 6.6233 89.3543 6.00729 88.9001 5.5531C88.4459 5.09891 87.8299 4.84375 87.1875 4.84375H67.8125C67.1702 4.84375 66.5542 5.09891 66.1 5.5531C65.6458 6.00729 65.3907 6.6233 65.3907 7.26562V12.1094H33.9063V7.26562C33.9063 6.6233 33.6511 6.00729 33.1969 5.5531C32.7428 5.09891 32.1267 4.84375 31.4844 4.84375H12.1094C11.4671 4.84375 10.8511 5.09891 10.3969 5.5531C9.9427 6.00729 9.68754 6.6233 9.68754 7.26562V21.225L5.0996 30.4012C4.91496 30.7704 4.82778 31.1807 4.84632 31.5931C4.86486 32.0056 4.98851 32.4064 5.20553 32.7576C5.42255 33.1087 5.72574 33.3986 6.08631 33.5997C6.44687 33.8007 6.85284 33.9062 7.26567 33.9062H19.375V60.5469H12.1094C11.4671 60.5469 10.8511 60.802 10.3969 61.2562C9.9427 61.7104 9.68754 62.3264 9.68754 62.9688V76.9281L5.0996 86.1043C4.91496 86.4735 4.82778 86.8839 4.84632 87.2963C4.86486 87.7087 4.98851 88.1095 5.20553 88.4607C5.42255 88.8119 5.72574 89.1017 6.08631 89.3028C6.44687 89.5038 6.85284 89.6094 7.26567 89.6094H19.375V116.25H12.1094C11.4671 116.25 10.8511 116.505 10.3969 116.959C9.9427 117.414 9.68754 118.03 9.68754 118.672V132.631L5.0996 141.807C4.91496 142.177 4.82778 142.587 4.84632 142.999C4.86486 143.412 4.98851 143.813 5.20553 144.164C5.42255 144.515 5.72574 144.805 6.08631 145.006C6.44687 145.207 6.85284 145.312 7.26567 145.312H36.3282C36.741 145.312 37.147 145.207 37.5075 145.006C37.8681 144.805 38.1713 144.515 38.3883 144.164C38.6053 143.813 38.729 143.412 38.7475 142.999C38.7661 142.587 38.6789 142.177 38.4942 141.807L33.9063 132.631V118.672C33.9063 118.03 33.6511 117.414 33.1969 116.959C32.7428 116.505 32.1267 116.25 31.4844 116.25H24.2188V89.6094H36.3282C36.741 89.6094 37.147 89.5038 37.5075 89.3028C37.8681 89.1017 38.1713 88.8119 38.3883 88.4607C38.6053 88.1095 38.729 87.7087 38.7475 87.2963C38.7661 86.8839 38.6789 86.4735 38.4942 86.1043L33.9063 76.9281V62.9688C33.9063 62.3264 33.6511 61.7104 33.1969 61.2562C32.7428 60.802 32.1267 60.5469 31.4844 60.5469H24.2188V33.9062H36.3282C36.741 33.9062 37.147 33.8007 37.5075 33.5997C37.8681 33.3986 38.1713 33.1087 38.3883 32.7576C38.6053 32.4064 38.729 32.0056 38.7475 31.5931C38.7661 31.1807 38.6789 30.7704 38.4942 30.4012L33.9063 21.225V16.9531H65.3907V21.225L60.8027 30.4012C60.6181 30.7704 60.5309 31.1807 60.5494 31.5931C60.568 32.0056 60.6916 32.4064 60.9087 32.7576C61.1257 33.1087 61.4289 33.3986 61.7894 33.5997C62.15 33.8007 62.556 33.9062 62.9688 33.9062H92.0313C92.4441 33.9062 92.8501 33.8007 93.2107 33.5997C93.5712 33.3986 93.8744 33.1087 94.0914 32.7576C94.3085 32.4064 94.4321 32.0056 94.4507 31.5931C94.4692 31.1807 94.382 30.7704 94.1974 30.4012L89.6094 21.225V16.9531H121.094V21.225L116.506 30.4012C116.321 30.7704 116.234 31.1807 116.253 31.5931C116.271 32.0056 116.395 32.4064 116.612 32.7576C116.829 33.1087 117.132 33.3986 117.493 33.5997C117.853 33.8007 118.259 33.9062 118.672 33.9062H130.781V60.5469H123.516C122.873 60.5469 122.257 60.802 121.803 61.2562C121.349 61.7104 121.094 62.3264 121.094 62.9688V76.9281L116.506 86.1043C116.321 86.4735 116.234 86.8839 116.253 87.2963C116.271 87.7087 116.395 88.1095 116.612 88.4607C116.829 88.8119 117.132 89.1017 117.493 89.3028C117.853 89.5038 118.259 89.6094 118.672 89.6094H130.781V116.25H123.516C122.873 116.25 122.257 116.505 121.803 116.959C121.349 117.414 121.094 118.03 121.094 118.672V132.631L116.506 141.807C116.321 142.177 116.234 142.587 116.253 142.999C116.271 143.412 116.395 143.813 116.612 144.164C116.829 144.515 117.132 144.805 117.493 145.006C117.853 145.207 118.259 145.312 118.672 145.312H147.734C148.147 145.312 148.553 145.207 148.914 145.006C149.274 144.805 149.578 144.515 149.795 144.164C150.012 143.813 150.135 143.412 150.154 142.999C150.172 142.587 150.085 142.177 149.9 141.807L145.313 132.631V118.672C145.313 118.03 145.057 117.414 144.603 116.959C144.149 116.505 143.533 116.25 142.891 116.25H135.625V89.6094H147.734ZM11.1843 140.469L13.6061 135.625H29.9877L32.4096 140.469H11.1843ZM29.0625 130.781H14.5313V121.094H29.0625V130.781ZM11.1843 84.7656L13.6061 79.9219H29.9877L32.4096 84.7656H11.1843ZM29.0625 75.0781H14.5313V65.3906H29.0625V75.0781ZM14.5313 9.6875H29.0625V19.375H14.5313V9.6875ZM11.1843 29.0625L13.6061 24.2188H29.9877L32.4096 29.0625H11.1843ZM70.2344 9.6875H84.7657V19.375H70.2344V9.6875ZM66.8874 29.0625L69.3093 24.2188H85.6908L88.1127 29.0625H66.8874ZM125.938 9.6875H140.469V19.375H125.938V9.6875ZM125.012 24.2188H141.394L143.816 29.0625H122.591L125.012 24.2188ZM122.591 140.469L125.012 135.625H141.394L143.816 140.469H122.591ZM140.469 130.781H125.938V121.094H140.469V130.781ZM125.938 65.3906H140.469V75.0781H125.938V65.3906ZM125.012 79.9219H141.394L143.816 84.7656H122.591L125.012 79.9219Z" fill="#B67CB7"/>
<path d="M79.9219 38.75H75.0781V53.2812H79.9219V38.75Z" fill="#B67CB7"/>
<path d="M53.2812 75.0781H38.75V79.9219H53.2812V75.0781Z" fill="#B67CB7"/>
<path d="M116.25 75.0781H101.719V79.9219H116.25V75.0781Z" fill="#B67CB7"/>
</svg>
