<svg width="155" height="155" viewBox="0 0 155 155" fill="none" xmlns="http://www.w3.org/2000/svg">
<g clip-path="url(#clip0)">
<path d="M104.412 78.7361C105.666 78.7361 106.682 77.7196 106.682 76.4656V60.0686C106.682 59.1223 106.095 58.2749 105.209 57.9428L78.2974 47.8512C77.7831 47.6583 77.2173 47.6583 76.7026 47.8512L49.791 57.9428C48.9049 58.2752 48.3179 59.1223 48.3179 60.0686V67.3585C48.3179 68.6124 49.3342 69.629 50.5884 69.629C51.8427 69.629 52.8589 68.6124 52.8589 67.3585V63.3451L75.2295 71.7339V101.747L52.8589 93.3579V77.9796C52.8589 76.7257 51.8427 75.7091 50.5884 75.7091C49.3342 75.7091 48.3179 76.7257 48.3179 77.9796V94.9315C48.3179 95.8779 48.9049 96.7252 49.791 97.0573L76.7026 107.149C76.7029 107.147 76.7035 107.145 76.7038 107.143C76.9596 107.239 77.2285 107.293 77.5003 107.293C77.7689 107.293 78.0389 107.246 78.2974 107.149L105.209 97.057C106.095 96.7246 106.682 95.8776 106.682 94.9312V87.0486C106.682 85.7947 105.666 84.7781 104.412 84.7781C103.157 84.7781 102.141 85.7947 102.141 87.0486V93.3576L79.7705 101.747V71.7339L102.141 63.3451V76.4656C102.141 77.7199 103.157 78.7361 104.412 78.7361ZM77.5 67.7357L57.0552 60.0689L77.5 52.4019L97.9449 60.0689L77.5 67.7357Z" fill="#B67CB7"/>
<path d="M75.2295 22.6627V38.968C75.2295 40.2219 76.2458 41.2385 77.5 41.2385C78.7542 41.2385 79.7705 40.2219 79.7705 38.968V22.6627C84.9972 21.6065 88.9449 16.9783 88.9449 11.4449C88.9449 5.13407 83.8108 0 77.5 0C71.1892 0 66.0551 5.13407 66.0551 11.4449C66.0551 16.9783 70.0028 21.6065 75.2295 22.6627ZM77.5 4.54102C81.3066 4.54102 84.4038 7.63799 84.4038 11.4449C84.4038 15.2518 81.3066 18.3487 77.5 18.3487C73.6934 18.3487 70.5961 15.2518 70.5961 11.4449C70.5961 7.63799 73.6934 4.54102 77.5 4.54102Z" fill="#B67CB7"/>
<path d="M121.181 105.454C117.662 105.454 114.41 106.616 111.787 108.576L106.352 103.141C105.465 102.254 104.028 102.254 103.141 103.141C102.254 104.027 102.254 105.465 103.141 106.351L108.576 111.786C106.616 114.409 105.455 117.662 105.455 121.18C105.455 129.851 112.51 136.906 121.181 136.906C129.852 136.906 136.907 129.851 136.907 121.18C136.907 112.508 129.852 105.454 121.181 105.454ZM121.181 132.365C115.013 132.365 109.995 127.348 109.995 121.18C109.995 115.013 115.013 109.995 121.181 109.995C127.348 109.995 132.366 115.013 132.366 121.18C132.366 127.348 127.348 132.365 121.181 132.365Z" fill="#B67CB7"/>
<path d="M33.8194 49.5452C37.3381 49.5452 40.5901 48.3837 43.213 46.4237L48.6479 51.8587C49.0914 52.3019 49.6727 52.5238 50.2536 52.5238C50.8346 52.5238 51.4158 52.3022 51.8593 51.8587C52.7461 50.972 52.7461 49.5343 51.8593 48.6479L46.4244 43.2129C48.3843 40.5901 49.5459 37.3378 49.5459 33.8194C49.5459 25.1479 42.4909 18.0933 33.8197 18.0933C25.1485 18.0933 18.0936 25.1479 18.0936 33.8194C18.0936 42.4909 25.1479 49.5452 33.8194 49.5452ZM33.8194 22.634C39.987 22.634 45.0045 27.6518 45.0045 33.8191C45.0045 39.9864 39.987 45.0042 33.8194 45.0042C27.6518 45.0042 22.6343 39.9864 22.6343 33.8191C22.6343 27.6518 27.6518 22.634 33.8194 22.634Z" fill="#B67CB7"/>
<path d="M79.7705 132.338V116.032C79.7705 114.778 78.7542 113.762 77.5 113.762C76.2458 113.762 75.2295 114.778 75.2295 116.032V132.338C70.0028 133.394 66.0551 138.022 66.0551 143.555C66.0551 149.866 71.1892 155 77.5 155C83.8108 155 88.9449 149.866 88.9449 143.555C88.9449 138.022 84.9972 133.394 79.7705 132.338ZM77.5 150.459C73.6934 150.459 70.5961 147.362 70.5961 143.555C70.5961 139.748 73.6934 136.651 77.5 136.651C81.3066 136.651 84.4038 139.748 84.4038 143.555C84.4038 147.362 81.3066 150.459 77.5 150.459Z" fill="#B67CB7"/>
<path d="M143.555 66.0552C138.022 66.0552 133.394 70.0028 132.337 75.2295H116.032C114.778 75.2295 113.762 76.2461 113.762 77.5C113.762 78.754 114.778 79.7706 116.032 79.7706H132.337C133.394 84.9973 138.022 88.9449 143.555 88.9449C149.866 88.9449 155 83.8108 155 77.5C155 71.1892 149.866 66.0552 143.555 66.0552ZM143.555 84.4039C139.749 84.4039 136.651 81.3069 136.651 77.5C136.651 73.6932 139.748 70.5962 143.555 70.5962C147.362 70.5962 150.459 73.6932 150.459 77.5C150.459 81.3069 147.362 84.4039 143.555 84.4039Z" fill="#B67CB7"/>
<path d="M22.6627 79.7706H38.968C40.2222 79.7706 41.2385 78.754 41.2385 77.5C41.2385 76.2461 40.2222 75.2295 38.968 75.2295H22.6627C21.6065 70.0028 16.9783 66.0552 11.4449 66.0552C5.13407 66.0552 0 71.1892 0 77.5C0 83.8108 5.13407 88.9449 11.4449 88.9449C16.9783 88.9449 21.6065 84.9973 22.6627 79.7706ZM11.4449 84.4039C7.63799 84.4039 4.54102 81.3069 4.54102 77.5C4.54102 73.6932 7.63799 70.5962 11.4449 70.5962C15.2518 70.5962 18.3484 73.6932 18.3484 77.5C18.3484 81.3069 15.2515 84.4039 11.4449 84.4039Z" fill="#B67CB7"/>
<path d="M104.746 52.5241C105.327 52.5241 105.909 52.3025 106.352 51.859L111.787 46.424C114.41 48.3839 117.662 49.5455 121.181 49.5455C129.852 49.5455 136.907 42.4909 136.907 33.8194C136.907 25.1479 129.852 18.0933 121.181 18.0933C112.509 18.0933 105.454 25.1479 105.454 33.8194C105.454 37.3381 106.616 40.5901 108.576 43.2129L103.141 48.6479C102.254 49.5346 102.254 50.9723 103.141 51.8587C103.584 52.3025 104.165 52.5241 104.746 52.5241ZM121.181 22.6343C127.348 22.6343 132.366 27.6521 132.366 33.8194C132.366 39.9867 127.348 45.0045 121.181 45.0045C115.013 45.0045 109.995 39.9867 109.995 33.8194C109.995 27.6521 115.013 22.6343 121.181 22.6343Z" fill="#B67CB7"/>
<path d="M48.6479 103.141L43.2129 108.576C40.59 106.616 37.3377 105.455 33.8193 105.455C25.1478 105.455 18.0932 112.509 18.0932 121.181C18.0932 129.852 25.1481 136.907 33.8193 136.907C42.4906 136.907 49.5455 129.852 49.5455 121.181C49.5455 117.662 48.3839 114.41 46.424 111.787L51.859 106.352C52.7457 105.465 52.7457 104.028 51.859 103.141C50.9723 102.254 49.5349 102.254 48.6479 103.141ZM33.8193 132.366C27.6517 132.366 22.6342 127.348 22.6342 121.181C22.6342 115.013 27.6517 109.996 33.8193 109.996C39.9869 109.996 45.0045 115.013 45.0045 121.181C45.0045 127.348 39.9869 132.366 33.8193 132.366Z" fill="#B67CB7"/>
</g>
<defs>
<clipPath id="clip0">
<rect width="155" height="155" fill="white"/>
</clipPath>
</defs>
</svg>
