<svg width="236" height="406" viewBox="0 0 236 406" fill="none" xmlns="http://www.w3.org/2000/svg">
<g clip-path="url(#clip0)">
<path d="M112.413 4.15735L0.552265 201.109C-0.566179 203.074 0.0688351 205.668 1.96978 206.895L114.367 279.326C116.436 280.659 119.8 280.659 121.869 279.321L234.029 206.899C235.93 205.668 236.565 203.074 235.45 201.105L123.815 4.16146C120.672 -1.38647 115.564 -1.38647 112.413 4.15735Z" fill="#8B6C9D"/>
<path d="M111.463 32.0688V145.428L22.6105 188.515L111.463 32.0688Z" fill="#ABE2FE"/>
<path d="M111.463 159.377V262.346L20.3204 203.535L111.463 159.377Z" fill="#85CAF7"/>
<path d="M124.278 32.0688V145.428L213.131 188.515L124.278 32.0688Z" fill="#85CAF7"/>
<path d="M124.278 159.377V262.346L215.421 203.535L124.278 159.377Z" fill="#7BBDEA"/>
<path d="M118.121 299.568L225.918 230.769C228.968 229.338 231.529 229.638 233.599 231.668C235.669 233.698 236.042 236.049 234.718 238.722L122.398 404.06C121.484 405.459 120.1 405.956 118.121 406.001C116.138 405.956 114.753 405.459 113.84 404.06L1.51983 238.722C0.195174 236.049 0.567989 233.698 2.63827 231.668C4.70855 229.638 7.2691 229.338 10.3199 230.769L118.121 299.568Z" fill="#8B6C9D"/>
<path d="M111.463 311.398V377.949L30.3577 259.268L111.463 311.398Z" fill="#ABE2FE"/>
<path d="M124.278 311.398V377.949L205.384 259.268L124.278 311.398Z" fill="#85CAF7"/>
</g>
<defs>
<clipPath id="clip0">
<rect width="236" height="406" fill="white"/>
</clipPath>
</defs>
</svg>
