<svg width="825" height="128" viewBox="0 0 825 128" fill="none" xmlns="http://www.w3.org/2000/svg">
<g fill="url(#paint0_linear)">
<path d="M66.9817 6.06062V35.1192L97.4442 65.6038V5.88232L66.9817 6.06062ZM66.9817 48.8461V80.4005C66.2692 85.5704 63.4189 89.1358 61.6375 90.9185C59.856 92.7013 56.115 95.732 50.4144 96.2668C50.0582 96.2668 49.7019 96.2668 49.3456 96.2668C48.9893 96.2668 48.633 96.2668 48.2767 96.2668C47.9204 96.2668 47.5642 96.2668 47.2079 96.2668C46.8516 96.2668 46.4953 96.2668 46.139 96.2668C45.6046 96.2668 45.0702 96.2668 44.5357 96.2668C43.1106 95.9101 41.8636 95.5536 40.6166 95.0188C40.4384 95.0188 40.2603 95.0188 40.0822 95.0188C38.4789 94.3058 37.2319 93.4144 36.163 92.523C35.9849 92.3447 35.8067 92.1663 35.6286 91.9882C35.2723 91.6315 34.916 91.2751 34.5597 90.9185C33.4909 89.8489 32.0657 88.0662 30.9969 85.5704C30.2843 84.1442 29.7499 82.3615 29.3936 80.4005H0C1.247 103.041 18.1706 121.403 40.0822 124.969C40.4384 124.969 40.7947 124.969 41.151 124.969C42.398 125.147 43.645 125.326 44.892 125.326C45.9609 125.326 47.0297 125.326 48.0986 125.326C48.4549 125.326 48.8112 125.326 49.1674 125.326C49.88 125.326 50.5926 125.326 51.3052 125.326C52.0177 125.326 52.7303 125.326 53.4429 125.326C54.5117 125.147 55.4025 124.969 56.2932 124.791C78.7392 121.047 95.8409 101.793 96.3753 78.4397L66.9817 48.8461Z"/>
<path d="M140.114 125.86H175.565L210.125 68.9908L192.488 39.7541L140.114 125.86ZM215.825 1.24707L198.189 30.3056L248.603 113.916L255.907 126.038H291.358L215.825 1.24707Z"/>
<path d="M350.061 125.861H380.345V85.7493L350.061 55.4428V125.861ZM433.254 29.5933L432.541 30.3064V81.2924L355.583 4.2785L354.871 3.56541H350.061V41.7158L380.345 72.0223L399.763 91.4539L433.075 124.791L434.322 126.039H462.825V0L433.254 29.5933Z"/>
<path d="M613.628 3.38734V64.7132C613.628 72.9138 610.422 80.5796 604.543 86.4626C602.94 88.067 601.158 89.4933 599.199 90.7411L596.705 92.3456L618.616 114.273L620.398 113.025C627.524 107.499 633.402 100.19 637.5 91.9891C641.775 83.4319 643.913 74.1617 643.913 64.5349V3.20905L613.628 3.38734ZM584.769 95.198C584.057 95.198 583.344 95.198 582.632 95.198C574.437 95.198 566.777 91.989 560.898 86.106C555.019 80.223 551.813 72.5573 551.813 64.3567V60.9695L521.35 30.4849V64.1784C521.35 84.3233 531.326 103.22 547.894 114.63C558.048 121.582 569.983 125.326 582.453 125.326C590.826 125.326 598.843 123.722 606.503 120.513L609.887 119.087L585.66 94.8414L584.769 95.198ZM551.635 2.85254H521.172V16.5795L551.635 47.0642V2.85254Z"/>
<path d="M746.973 3.3877L777.258 33.6941H825V3.3877H746.973ZM823.397 76.8362L822.862 75.5882C822.862 75.4099 822.862 75.2315 822.862 75.0534L822.328 73.449L822.15 73.0922C821.793 72.3791 821.437 71.666 821.081 70.9529L820.903 70.7746C820.368 69.7049 819.834 68.6353 819.299 67.5657L819.121 67.2089C818.943 67.0305 818.765 66.8522 818.587 66.6741C818.408 66.4957 818.23 66.3174 818.052 66.1393C817.874 65.7826 817.696 65.4262 817.518 65.0697L817.34 64.8913C817.161 64.7129 816.983 64.5345 816.805 64.3564C816.805 64.1781 816.805 63.9997 816.805 63.8216L816.449 63.4649C816.27 63.2865 816.092 63.1081 815.914 62.9301C815.38 62.3952 814.845 61.8604 814.311 61.3256C814.133 61.1472 813.954 60.9689 813.776 60.7908C813.598 60.6124 813.42 60.6124 813.242 60.6124L812.886 60.2557C812.707 60.0773 812.529 59.8989 812.351 59.7208C811.995 59.364 811.639 59.186 811.46 59.0078C810.748 58.473 810.035 57.9381 809.323 57.4033L809.144 57.2249C808.788 57.0465 808.432 56.8682 808.076 56.6901C807.719 56.5117 807.363 56.3334 807.007 56.1553L806.116 55.6204C805.582 55.2637 805.047 54.9074 804.513 54.5508C804.156 54.3724 803.8 54.1941 803.444 54.016C803.266 54.016 803.087 54.016 802.909 54.016C802.375 53.8376 801.841 53.6592 801.306 53.4811H801.128C800.771 53.3028 800.415 53.1244 800.059 52.9463H799.881C799.168 52.768 798.456 52.5896 797.743 52.4115H797.565C797.208 52.2332 796.852 52.0548 796.496 51.8767C796.318 51.8767 796.139 51.8767 795.962 51.8767L795.605 51.6984H795.427C795.07 51.52 794.714 51.3416 794.358 51.3416H794.18C793.823 51.3416 793.467 51.3416 793.111 51.3416H792.577C792.22 51.3416 791.864 51.3416 791.508 51.3416H791.329C791.151 51.3416 790.973 51.3416 790.795 51.3416C790.438 51.3416 790.082 51.3416 789.726 51.3416C789.548 51.3416 789.37 51.3416 789.192 51.3416H789.013C788.835 51.3416 788.657 51.3416 788.479 51.3416C788.123 51.3416 787.766 51.3416 787.41 51.3416H787.054C786.875 51.3416 786.697 51.3416 786.519 51.3416H786.341C786.163 51.3416 785.984 51.3416 785.807 51.3416H739.668C735.392 51.3416 731.829 47.7762 731.829 43.4976C731.829 39.2191 735.392 35.6536 739.668 35.6536H762.292L732.542 5.882L731.295 6.23874C730.404 6.41711 729.513 6.59546 728.623 6.95184C722.566 8.73458 717.043 12.1217 712.59 16.5785C708.136 21.0354 704.752 26.5619 702.97 32.6231C701.901 36.1886 701.367 39.9323 701.367 43.6761C701.367 47.4198 701.901 51.1635 702.97 54.729C704.752 60.7903 708.136 66.3167 712.59 70.7735C717.043 75.2303 722.566 78.6176 728.623 80.4003C732.185 81.47 735.926 82.0047 739.668 82.0047H785.807C790.082 82.0047 793.645 85.5702 793.645 89.8488C793.645 94.1273 790.082 97.6928 785.807 97.6928H701.545V127.999H785.807C794.179 127.999 802.196 125.325 808.787 120.334C815.2 115.52 820.01 108.567 822.326 100.902C823.395 97.3363 823.929 93.5925 823.929 89.8488C823.929 86.105 823.395 82.3613 822.326 78.7959L823.397 76.8362Z"/>
</g>
<defs>
<linearGradient id="paint0_linear" x1="125" y1="125" x2="675" y2="675" gradientUnits="userSpaceOnUse">
<stop stop-color="#ABE2FE"/>
<stop offset="0.5" stop-color="#85CAF7"/>
<stop offset="1" stop-color="#7BBDEA"/>
</linearGradient>
</defs>
</svg>
