<?xml version="1.0" encoding="UTF-8" standalone="no"?>
<svg
   xmlns="http://www.w3.org/2000/svg"
   version="1.1"
   width="40"
   height="40"
   viewBox="0 0 24 24"
   >
  <path
     id="path11"
     transform="scale(0.046875)"
     d="M 256 0 A 255.99998 255.99998 0 0 0 0 256 A 255.99998 255.99998 0 0 0 256 512 A 255.99998 255.99998 0 0 0 512 256 A 255.99998 255.99998 0 0 0 256 0 z M 101.44336 130.47461 L 193.35547 130.47461 L 264.42969 285.9668 L 326.90234 130.47461 L 414.55859 130.47461 L 414.55859 135.77148 L 389.25586 159.97852 C 387.0889 161.60375 385.97886 164.35286 386.44141 167.03516 L 386.44141 344.97852 C 385.97894 347.64761 387.10256 350.39502 389.26953 352.0332 L 413.97852 376.22852 L 413.97852 381.52539 L 289.61523 381.52539 L 289.61523 376.21484 L 315.24805 351.41406 C 317.73214 348.92997 317.73242 348.14966 317.73242 344.35742 L 317.73242 200.58398 L 246.47266 381.06445 L 236.83984 381.06445 L 153.9668 200.58398 L 153.9668 321.53711 C 153.24007 326.65065 154.94551 331.73883 158.55273 335.41211 L 191.84961 375.69922 L 191.84961 380.99805 L 97.441406 380.99805 L 97.441406 375.76562 L 130.73828 335.41211 C 134.27943 331.75206 135.91758 326.57137 135.00586 321.53711 L 135.00586 181.70117 C 135.38904 177.82968 133.88245 173.98491 131.00195 171.35547 L 101.44336 135.77148 L 101.44336 130.47461 z "
     fill="#000000" />
</svg>
