<svg width="344" height="247" viewBox="0 0 344 247" fill="none" xmlns="http://www.w3.org/2000/svg">
<g clip-path="url(#clip0)">
<path d="M169.302 247C217.544 247 256.651 242.105 256.651 236.066C256.651 230.028 217.544 225.133 169.302 225.133C121.06 225.133 81.9529 230.028 81.9529 236.066C81.9529 242.105 121.06 247 169.302 247Z" fill="#3F3D56"/>
<path d="M317.062 142.579L283.294 158.521L313.18 136.229C308.323 128.666 302.866 121.503 296.862 114.81L150.416 151.12L282.698 100.783C276.653 95.4627 270.234 90.5817 263.489 86.1775L40.3388 122.032C16.6459 151.587 3.73018 188.299 3.71194 226.142H339.614C339.6 196.793 331.821 167.968 317.062 142.579V142.579Z" fill="#F2F2F2"/>
<path d="M245.226 75.8267C222.315 64.6799 197.153 58.9039 171.663 58.9399C119.783 58.9399 73.3997 82.4062 42.5918 119.277C95.3474 107.746 187.199 87.7858 245.226 75.8267Z" fill="#F2F2F2"/>
<path opacity="0.4" d="M278.262 91.9376C281.041 91.9376 283.294 89.6903 283.294 86.9182C283.294 84.146 281.041 81.8987 278.262 81.8987C275.483 81.8987 273.23 84.146 273.23 86.9182C273.23 89.6903 275.483 91.9376 278.262 91.9376Z" fill="#A740A8"/>
<path opacity="0.4" d="M268.949 92.8364C270.899 92.8364 272.479 91.26 272.479 89.3153C272.479 87.3707 270.899 85.7942 268.949 85.7942C267 85.7942 265.42 87.3707 265.42 89.3153C265.42 91.26 267 92.8364 268.949 92.8364Z" fill="#A740A8"/>
<path opacity="0.4" d="M40.0497 110.732C45.87 110.732 50.5882 106.025 50.5882 100.219C50.5882 94.4134 45.87 89.7068 40.0497 89.7068C34.2295 89.7068 29.5112 94.4134 29.5112 100.219C29.5112 106.025 34.2295 110.732 40.0497 110.732Z" fill="#A740A8"/>
<path opacity="0.4" d="M20.5456 112.615C24.6285 112.615 27.9383 109.313 27.9383 105.24C27.9383 101.168 24.6285 97.866 20.5456 97.866C16.4628 97.866 13.1529 101.168 13.1529 105.24C13.1529 109.313 16.4628 112.615 20.5456 112.615Z" fill="#A740A8"/>
<path d="M344 225.805H0V226.478H344V225.805Z" fill="#2F2E41"/>
<path d="M305.027 225.806L278.235 186.108C278.235 186.108 318.809 200.237 314.205 225.806H305.027Z" fill="#3F3D56"/>
<path d="M306.079 225.806L332.871 186.108C332.871 186.108 292.296 200.237 296.901 225.806H306.079Z" fill="#A740A8"/>
<path d="M70.149 44.667C70.149 42.4813 67.0248 40.7094 63.1708 40.7094C63.0945 40.7094 63.019 40.7113 62.9433 40.7127C61.7807 37.1576 56.2849 34.4653 49.6795 34.4653C44.0595 34.4653 39.2428 36.4144 37.2146 39.1854C35.716 38.7898 34.1717 38.5925 32.6215 38.5988C26.7121 38.5988 21.9216 41.3156 21.9216 44.667C21.9216 47.7113 25.8748 50.2316 31.0286 50.6679C34.7737 51.351 40.6237 51.7906 47.1983 51.7906C58.3604 51.7906 66.5277 49.6666 66.7326 48.0701C68.7778 47.38 70.149 46.1146 70.149 44.667Z" fill="#F2F2F2"/>
<path d="M238.776 46.3491C238.776 44.1634 235.652 42.3916 231.798 42.3916C231.722 42.3916 231.646 42.3934 231.571 42.3948C230.408 38.8397 224.912 36.1475 218.307 36.1475C212.687 36.1475 207.87 38.0965 205.842 40.8675C204.343 40.4719 202.799 40.2747 201.249 40.2809C195.34 40.2809 190.549 42.9977 190.549 46.3491C190.549 49.3935 194.502 51.9137 199.656 52.35C203.401 53.0331 209.251 53.4727 215.826 53.4727C226.988 53.4727 235.155 51.3487 235.36 49.7522C237.405 49.0622 238.776 47.7967 238.776 46.3491Z" fill="#F2F2F2"/>
<path d="M332.871 17.9064C332.871 14.07 327.387 10.9599 320.622 10.9599C320.488 10.9599 320.356 10.9632 320.223 10.9657C318.182 4.72561 308.536 0 296.942 0C287.077 0 278.623 3.42101 275.063 8.28484C272.432 7.59044 269.722 7.24425 267.001 7.25517C256.628 7.25517 248.22 12.0239 248.22 17.9064C248.22 23.25 255.159 27.6736 264.205 28.4395C270.778 29.6384 281.046 30.41 292.587 30.41C312.179 30.41 326.514 26.6819 326.874 23.8796C330.464 22.6685 332.871 20.4473 332.871 17.9064Z" fill="#F2F2F2"/>
<path d="M192.293 97.5314C185.317 85.7732 171.515 85.2253 171.515 85.2253C171.515 85.2253 158.066 83.5097 149.439 101.418C141.398 118.109 130.3 134.225 147.653 138.132L150.787 128.401L152.728 138.857C155.199 139.034 157.677 139.076 160.153 138.984C178.736 138.385 196.434 139.159 195.864 132.507C195.106 123.664 199.005 108.845 192.293 97.5314Z" fill="#2F2E41"/>
<path d="M146.662 200.503C146.457 201.796 146.159 203.073 145.772 204.324C145.335 205.549 144.661 206.681 144.262 207.918C142.99 211.862 144.754 216.258 147.571 219.302C150.014 221.931 153.167 223.799 156.65 224.68C159.191 225.318 161.834 225.409 164.453 225.498C171.704 225.743 179.143 225.963 186.015 223.638C188.186 222.885 190.282 221.935 192.279 220.799C192.909 220.499 193.465 220.063 193.904 219.522C194.428 218.778 194.496 217.813 194.491 216.903C194.476 213.836 193.852 210.785 194 207.722C194.082 206.026 194.401 204.33 194.244 202.639C194.027 200.718 193.22 198.91 191.934 197.464C190.648 196.018 188.945 195.004 187.059 194.561C185.11 194.143 183.088 194.37 181.103 194.561C175.952 195.055 170.778 195.285 165.603 195.252C160.315 195.219 155.06 194.413 149.799 194.329C148.243 194.304 148.275 194.783 147.779 196.285C147.323 197.668 146.95 199.076 146.662 200.503V200.503Z" fill="#2F2E41"/>
<path d="M161.668 124.779C161.414 126.106 161.139 127.482 160.339 128.573C159.419 129.828 157.92 130.545 156.93 131.746C155.44 133.553 155.355 136.097 155.349 138.437C155.343 140.593 155.387 142.892 156.592 144.681C157.374 145.843 158.564 146.657 159.727 147.439C164.247 150.477 169.13 153.569 174.579 153.67C176.837 153.711 179.257 153.129 180.743 151.433C181.384 150.636 181.889 149.739 182.235 148.777C183.628 145.351 184.473 141.728 184.738 138.04C184.862 136.305 184.85 134.52 184.262 132.883C183.6 131.042 182.261 129.527 181.377 127.781C180.331 125.706 179.948 123.36 180.281 121.061C180.325 120.899 180.311 120.727 180.242 120.574C180.17 120.492 180.079 120.428 179.977 120.387C179.875 120.346 179.766 120.329 179.656 120.337L168.852 119.561C167.846 119.511 166.844 119.397 165.852 119.219C165.27 119.101 163.732 118.276 163.176 118.495C162.148 118.901 161.878 123.679 161.668 124.779Z" fill="#FFB8B8"/>
<path opacity="0.1" d="M161.668 124.779C161.414 126.106 161.139 127.482 160.339 128.573C159.419 129.828 157.92 130.545 156.93 131.746C155.44 133.553 155.355 136.097 155.349 138.437C155.343 140.593 155.387 142.892 156.592 144.681C157.374 145.843 158.564 146.657 159.727 147.439C164.247 150.477 169.13 153.569 174.579 153.67C176.837 153.711 179.257 153.129 180.743 151.433C181.384 150.636 181.889 149.739 182.235 148.777C183.628 145.351 184.473 141.728 184.738 138.04C184.862 136.305 184.85 134.52 184.262 132.883C183.6 131.042 182.261 129.527 181.377 127.781C180.331 125.706 179.948 123.36 180.281 121.061C180.325 120.899 180.311 120.727 180.242 120.574C180.17 120.492 180.079 120.428 179.977 120.387C179.875 120.346 179.766 120.329 179.656 120.337L168.852 119.561C167.846 119.511 166.844 119.397 165.852 119.219C165.27 119.101 163.732 118.276 163.176 118.495C162.148 118.901 161.878 123.679 161.668 124.779Z" fill="black"/>
<path d="M172 126.224C180.754 126.224 187.851 119.145 187.851 110.412C187.851 101.68 180.754 94.6006 172 94.6006C163.246 94.6006 156.149 101.68 156.149 110.412C156.149 119.145 163.246 126.224 172 126.224Z" fill="#FFB8B8"/>
<path d="M163.891 145.827C164.717 146.689 165.592 147.541 166.675 148.046C167.777 148.501 168.961 148.726 170.153 148.707C173.011 148.787 176.108 148.265 178.096 146.216C180.658 143.574 180.573 139.314 182.582 136.232C182.744 135.953 182.964 135.712 183.229 135.526C183.566 135.343 183.947 135.256 184.33 135.274C186.866 135.25 189.076 136.891 191.07 138.455C191.963 139.156 192.879 139.882 193.442 140.866C193.836 141.633 194.106 142.458 194.242 143.31C195.232 148.128 195.552 153.055 195.87 157.964C196.046 160.675 196.222 163.389 196.209 166.106C196.166 175.056 194.08 183.857 192.006 192.565C191.739 193.688 191.373 194.942 190.35 195.479C189.894 195.684 189.404 195.803 188.905 195.831C182.965 196.527 177.013 197.224 171.032 197.316C168.698 197.351 166.366 197.295 164.034 197.147C163.632 197.141 163.234 197.072 162.855 196.942C162.34 196.695 161.897 196.32 161.57 195.853C158.335 191.786 158.144 186.165 158.165 180.974C158.215 168.282 158.67 155.601 159.528 142.93C159.599 141.884 159.615 140.613 158.859 139.791C160.22 141.963 162.112 143.972 163.891 145.827Z" fill="#D0CDE1"/>
<path d="M160.533 127.57C159.998 128.537 156.051 130.937 155.289 131.739C151.032 136.215 143.261 136.047 139.367 140.842C137.998 142.529 137.286 144.648 136.762 146.756C136.022 149.736 135.627 152.986 136.867 155.796C138.06 158.5 140.572 160.37 142.278 162.785C144.151 165.437 144.993 168.658 145.8 171.8C146.396 174.12 146.996 176.498 146.764 178.882C146.5 181.593 145.186 184.075 144.409 186.686C143.633 189.297 143.499 192.406 145.294 194.458C146.613 195.966 148.681 196.563 150.658 196.899C153.191 197.279 155.744 197.501 158.305 197.563C160.565 197.663 163.056 197.682 164.794 196.237C166.165 195.096 166.761 193.246 166.838 191.467C166.915 189.688 166.544 187.924 166.311 186.159C166.07 184.328 165.978 182.482 165.9 180.638C165.553 172.362 165.505 164.081 165.758 155.795C165.811 154.071 165.874 152.326 165.506 150.64C165.021 148.424 163.82 146.443 162.818 144.406C160.829 140.364 159.889 136.437 160.196 131.944C160.5 127.509 162.438 124.13 160.533 127.57Z" fill="#A740A8"/>
<path d="M182.792 127.907C183.608 128.743 186.378 129.018 187.416 129.557C188.391 130.006 189.41 130.358 190.455 130.606C194.239 131.695 197.838 133.343 201.133 135.495C201.817 135.894 202.422 136.416 202.918 137.033C203.498 137.839 203.709 138.844 203.906 139.816C204.414 142.325 204.924 144.865 204.81 147.423C204.689 150.138 203.869 152.768 203.056 155.362L200.017 165.054C197.748 172.288 195.465 179.594 194.827 187.147C194.474 191.334 194.631 195.547 195.295 199.696C195.361 200.113 195.417 200.591 195.141 200.911C194.941 201.109 194.678 201.229 194.397 201.253C192.93 201.481 191.511 200.735 190.182 200.075C186.12 198.059 181.785 196.644 177.314 195.875C179.061 193.356 180.409 190.584 181.31 187.656C181.822 185.797 182.226 183.91 182.518 182.004L183.932 173.847C184.507 170.866 184.912 167.855 185.145 164.828C185.251 163.692 185.185 162.546 184.948 161.43C184.622 160.368 184.189 159.341 183.657 158.366C181.327 153.531 180.233 148.014 181.15 142.728C181.551 140.415 182.331 138.099 182.006 135.774C181.693 133.538 182.018 131.801 181.443 129.589C179.082 120.505 181.258 126.334 182.792 127.907Z" fill="#A740A8"/>
<path d="M139.327 148.486C138.265 150.684 136.489 152.557 135.885 154.923C135.649 156.028 135.549 157.158 135.585 158.287C135.57 159.989 135.561 161.726 136.085 163.346C136.422 164.389 136.971 165.351 137.366 166.373C137.918 167.802 138.163 169.329 138.087 170.858C137.981 172.976 137.259 175.032 137.203 177.152C137.114 180.486 138.66 183.62 140.168 186.596C140.548 185.658 141.128 184.814 141.869 184.124C142.61 183.433 143.493 182.912 144.456 182.597C145.42 182.283 146.441 182.182 147.447 182.302C148.454 182.422 149.422 182.76 150.284 183.292C150.682 182.925 150.725 182.324 150.74 181.783C150.852 177.916 150.959 174.048 151.063 170.18C151.226 164.198 151.382 158.137 150.002 152.313C149.38 149.684 148.41 147.064 146.634 145.025C145.698 143.951 142.523 141.122 140.987 142.325C140.296 142.866 140.458 144.339 140.348 145.085C140.183 146.264 139.839 147.41 139.327 148.486V148.486Z" fill="#A740A8"/>
<path d="M205.121 142.149C205.623 143.71 205.653 145.377 205.663 147.016C205.683 150.36 205.639 153.703 205.53 157.045C205.474 158.757 205.397 160.491 204.877 162.123C204.534 163.199 204.004 164.208 203.65 165.28C202.588 168.494 203.168 171.98 203.26 175.363C203.324 176.457 203.23 177.556 202.981 178.624C202.421 180.721 200.915 182.415 199.864 184.316C198.866 186.12 198.264 188.143 197.072 189.826C195.88 191.51 193.816 192.844 191.816 192.327C190.301 191.935 189.224 190.597 188.479 189.224C186.854 186.204 186.298 182.725 186.901 179.35C187.649 175.245 190.067 171.603 190.939 167.522C192.136 161.917 190.316 156.134 190.37 150.404C190.346 149.506 190.468 148.61 190.732 147.751C191.189 146.442 192.172 145.397 193.079 144.347C194.213 143.035 195.266 141.656 196.233 140.218C196.883 139.251 197.765 136.766 198.917 136.559C201.488 136.098 204.483 140.168 205.121 142.149Z" fill="#A740A8"/>
<path d="M125.985 198.011C124.563 197.654 123.098 197.499 121.633 197.549C120.093 197.634 118.59 198.045 117.222 198.754C115.854 199.464 114.653 200.456 113.699 201.664C112.745 202.872 112.06 204.269 111.689 205.762C111.318 207.255 111.27 208.81 111.548 210.323C111.903 211.961 112.484 213.543 113.273 215.023C114.427 217.36 115.811 219.691 117.948 221.188C119.198 222.064 120.645 222.61 122.074 223.148L133.328 227.377C134.983 227.999 136.639 228.621 138.311 229.198C146.711 232.094 155.468 233.831 164.34 234.36C167.042 234.52 169.785 234.565 172.421 233.951C173.047 233.805 173.714 233.588 174.076 233.059C174.291 232.686 174.417 232.27 174.446 231.841L175.138 227.005C175.236 226.324 175.33 225.607 175.08 224.966C174.762 224.153 173.967 223.642 173.209 223.208C165.811 218.969 157.172 216.63 150.944 210.813C149.478 209.443 148.251 207.272 146.47 206.342C144.45 205.287 142.072 204.685 139.984 203.712C135.419 201.587 130.932 199.145 125.985 198.011Z" fill="#2F2E41"/>
<path opacity="0.1" d="M137.22 204.53C141.198 205.773 157.992 214.387 160.871 217.395C160.485 217.533 147.394 210.215 147.001 210.097C143.43 209.028 139.839 207.952 136.449 206.388C135.766 206.073 132.017 204.594 132.187 203.735C132.378 202.767 136.514 204.309 137.22 204.53Z" fill="black"/>
<path d="M186.845 236.868C187.071 236.884 187.295 236.818 187.476 236.682C187.555 236.581 187.613 236.465 187.647 236.34C187.681 236.216 187.689 236.086 187.673 235.959C187.666 233.763 187.66 231.566 187.654 229.37C185.755 228.468 183.63 228.178 181.545 227.9L171.816 226.603C172.039 226.633 170.295 230.783 170.562 231.337C171.034 232.314 174.637 233.179 175.654 233.64C179.19 235.243 182.863 237.006 186.845 236.868Z" fill="#FFB8B8"/>
<path d="M156.319 229.348C154.482 229.639 152.432 229.897 151.242 231.324C149.734 233.133 150.376 235.83 151.096 238.07C151.203 238.524 151.417 238.945 151.721 239.298C152.213 239.781 152.965 239.852 153.654 239.896C155.329 240.002 157.112 240.084 158.576 239.265C159.239 238.828 159.877 238.354 160.488 237.847C161.567 237.131 162.754 236.589 164.003 236.244C166.3 235.523 168.664 235.037 171.059 234.793C172.003 234.75 172.938 234.586 173.839 234.304C174.722 233.973 175.54 233.314 175.797 232.408C176.136 231.211 175.438 229.99 174.769 228.94C173.936 227.632 173.053 226.255 171.81 225.292C169.997 223.888 169.101 224.966 167.275 225.865C163.818 227.567 160.125 228.741 156.319 229.348V229.348Z" fill="#FFB8B8"/>
<path d="M151.519 230.998L139.855 227.559C138.436 227.141 136.993 226.719 135.514 226.72C134.035 226.721 132.487 227.205 131.528 228.328C130.623 229.387 130.364 230.835 130.139 232.207L129.656 235.144C129.411 236.637 129.166 238.158 129.386 239.654C129.607 241.15 130.373 242.645 131.704 243.369C133.318 244.248 135.296 243.819 137.097 243.451C140.736 242.709 144.437 242.313 148.151 242.269C149.547 242.252 151.011 242.27 152.245 241.617C153.712 240.842 154.589 239.203 154.74 237.554C154.969 235.045 154.131 231.769 151.519 230.998Z" fill="#2F2E41"/>
<path d="M191.43 228.001C192.942 227.737 194.277 226.88 195.726 226.374C197.765 225.662 199.975 225.662 202.136 225.669C202.929 225.672 203.774 225.69 204.434 226.129C205.386 226.761 205.63 228.026 205.792 229.155L206.768 235.967C206.952 237.248 207.134 238.564 206.848 239.827C206.561 241.089 205.699 242.306 204.443 242.632C202.918 243.027 201.422 242.055 199.982 241.417C196.383 239.821 192.199 240.229 188.445 239.036C187.749 238.815 187.003 238.476 186.719 237.805C186.59 237.426 186.545 237.025 186.584 236.627C186.649 234.438 186.186 231.448 186.847 229.355C187.441 227.473 189.742 228.001 191.43 228.001Z" fill="#2F2E41"/>
<path d="M216.114 195.269C218.445 194.686 220.861 194.521 223.249 194.782C225.157 194.992 227.122 195.521 228.515 196.839C230.21 198.442 230.755 200.921 230.8 203.25C230.875 207.89 229.332 212.412 226.435 216.043C225.728 216.962 224.887 217.77 223.94 218.44C222.918 219.077 221.83 219.601 220.693 220L195.491 229.916C188.861 232.525 182.207 235.141 175.292 236.861C175.103 236.952 174.897 237.005 174.687 237.015C174.478 237.026 174.268 236.995 174.071 236.923C173.873 236.852 173.692 236.742 173.538 236.6C173.384 236.457 173.26 236.286 173.173 236.095C170.965 232.949 169.113 229.568 167.65 226.016C167.58 225.931 167.533 225.831 167.51 225.725C167.488 225.618 167.491 225.507 167.521 225.402C167.55 225.297 167.605 225.201 167.68 225.121C167.755 225.042 167.847 224.981 167.951 224.945L185.776 214.728C187.053 213.996 188.344 213.254 189.405 212.234C190.175 211.489 190.806 210.613 191.267 209.647C191.637 208.877 191.671 207.061 192.143 206.492C192.605 205.935 194.186 205.89 194.916 205.671C195.946 205.356 196.954 204.976 197.935 204.533C201.923 202.753 205.473 200.168 209.296 198.084C211.44 196.861 213.731 195.915 216.114 195.269V195.269Z" fill="#2F2E41"/>
<path opacity="0.1" d="M206.008 202.898C202.946 205.193 198.98 207.302 195.945 209.657C194.909 210.461 177.64 220.146 177.396 221.432C180.228 221.908 198.266 209.32 200.847 208.063C203.428 206.807 205.716 205.036 207.983 203.278C208.561 202.83 211.009 201.483 209.351 200.982C208.416 200.7 206.698 202.44 206.008 202.898Z" fill="black"/>
<path d="M189.208 96.3979L175.573 89.2734L156.744 92.1879L152.848 109.352L162.546 108.98L165.255 102.674V108.876L169.73 108.704L172.327 98.665L173.95 109.352L189.858 109.028L189.208 96.3979Z" fill="#2F2E41"/>
<path d="M186.165 131.607H156.824V166.932H186.165V131.607Z" fill="#3F3D56"/>
<path d="M142.894 193.045C143.568 194.049 144.357 195.03 145.44 195.571C146.13 195.885 146.882 196.038 147.641 196.018C148.399 195.998 149.143 195.805 149.815 195.454C151.157 194.736 152.256 193.637 152.972 192.296C154.454 189.686 154.761 186.562 154.576 183.568C154.391 180.574 153.75 177.626 153.467 174.64C153.26 172.469 153.244 170.285 153.227 168.104C153.176 167.646 153.272 167.183 153.502 166.782C153.831 166.335 154.432 166.212 154.964 166.054C157.955 165.168 159.94 162.372 161.363 159.602C162.313 157.753 163.14 155.731 162.957 153.661C162.773 151.591 161.282 149.506 159.209 149.294C157.501 149.12 155.923 150.203 154.69 151.396C151.581 154.425 149.583 158.408 149.017 162.707C148.746 164.811 148.824 166.974 148.25 169.017C147.025 173.38 143.19 176.055 141.28 179.981C139.174 184.307 140.336 189.218 142.894 193.045Z" fill="#FFB8B8"/>
<path d="M199.315 176.377C198.879 177.389 198.244 178.303 197.448 179.066C196.652 179.83 195.71 180.426 194.68 180.82C193.398 181.333 191.985 181.42 190.65 181.066C189.988 180.883 189.377 180.55 188.865 180.093C188.353 179.637 187.954 179.068 187.698 178.432C187.494 177.792 187.382 177.126 187.365 176.454C187.174 173.512 187.248 170.48 188.319 167.732C188.732 166.672 189.29 165.667 189.616 164.577C189.936 163.319 190.1 162.026 190.104 160.727L190.456 152.699C190.514 152.117 190.474 151.528 190.336 150.959C189.985 149.797 188.897 149.042 187.898 148.35C185.487 146.677 183.104 144.724 181.935 142.036C181.534 141.227 181.39 140.314 181.523 139.421C181.852 137.827 183.465 136.795 185.059 136.447C186.102 136.22 187.18 136.205 188.229 136.405C189.278 136.604 190.275 137.013 191.161 137.607C192.047 138.201 192.804 138.968 193.385 139.861C193.966 140.755 194.359 141.756 194.542 142.806C194.7 143.712 194.698 144.637 194.79 145.552C194.986 147.493 195.603 149.363 195.99 151.275C196.941 155.985 196.448 160.854 197.389 165.563C198.176 169.5 201.144 172.069 199.315 176.377Z" fill="#FFB8B8"/>
<path d="M17.75 225.475L17.0755 225.462C17.3364 217.981 18.1366 210.528 19.4699 203.162C22.3866 187.39 27.2366 177.032 33.8852 172.375L34.2725 172.926C18.7414 183.804 17.7579 225.06 17.75 225.475Z" fill="#2F2E41"/>
<path d="M26.1814 225.314L25.5069 225.301C25.5214 224.556 25.943 206.995 32.8735 202.141L33.2608 202.692C26.6099 207.35 26.1847 225.135 26.1814 225.314Z" fill="#2F2E41"/>
<path d="M38.1098 172.987C39.9724 172.987 41.4824 171.481 41.4824 169.623C41.4824 167.765 39.9724 166.259 38.1098 166.259C36.2472 166.259 34.7373 167.765 34.7373 169.623C34.7373 171.481 36.2472 172.987 38.1098 172.987Z" fill="#A740A8"/>
<path d="M36.4397 201.919C38.3023 201.919 39.8122 200.413 39.8122 198.555C39.8122 196.697 38.3023 195.191 36.4397 195.191C34.5771 195.191 33.0671 196.697 33.0671 198.555C33.0671 200.413 34.5771 201.919 36.4397 201.919Z" fill="#A740A8"/>
<path d="M24.6094 175.004C25.2432 179.042 23.5912 182.654 23.5912 182.654C23.5912 182.654 20.9116 179.719 20.2778 175.68C19.644 171.642 21.2959 168.03 21.2959 168.03C21.2959 168.03 23.9755 170.965 24.6094 175.004Z" fill="#2F2E41"/>
<path d="M35.6333 184.812C31.7572 186.138 27.9038 185.145 27.9038 185.145C27.9038 185.145 30.3347 182.001 34.2108 180.675C38.0868 179.349 41.9402 180.342 41.9402 180.342C41.9402 180.342 39.5093 183.486 35.6333 184.812Z" fill="#2F2E41"/>
<path d="M35.7578 210.434C34.0035 210.984 32.1353 211.064 30.3401 210.667C31.48 209.22 33.0152 208.132 34.7607 207.534C36.5063 206.937 38.3878 206.856 40.1785 207.301C39.0053 208.714 37.4809 209.794 35.7578 210.434V210.434Z" fill="#2F2E41"/>
</g>
<defs>
<clipPath id="clip0">
<rect width="344" height="247" fill="white"/>
</clipPath>
</defs>
</svg>
