<?xml version="1.0" encoding="UTF-8" standalone="yes"?>
<svg
   xmlns:dc="http://purl.org/dc/elements/1.1/"
   xmlns:cc="http://creativecommons.org/ns#"
   xmlns:rdf="http://www.w3.org/1999/02/22-rdf-syntax-ns#"
   xmlns:svg="http://www.w3.org/2000/svg"
   xmlns="http://www.w3.org/2000/svg"
   xml:space="preserve"
   height="40"
   width="40"
   style="enable-background:new 0 0 112.197 112.197;"
   viewBox="0 0 112.197 112.197"
   y="0px"
   x="0px"
   >
<path
   id="circle117"
   transform="scale(2.804925)"
   d="M 20.466797 0.005859375 A 19.999822 19.999822 0 0 0 3.4277344 8.8046875 A 19.999822 19.999822 0 0 0 8.8046875 36.572266 A 19.999822 19.999822 0 0 0 36.572266 31.195312 A 19.999822 19.999822 0 0 0 31.195312 3.4277344 A 19.999822 19.999822 0 0 0 20.466797 0.005859375 z M 25.082031 12.130859 C 26.457826 12.130859 27.700228 12.711901 28.572266 13.640625 C 29.660708 13.426359 30.68369 13.028433 31.607422 12.480469 C 31.249837 13.597433 30.493052 14.53354 29.505859 15.125 C 30.47273 15.010202 31.392936 14.753093 32.25 14.373047 C 31.609341 15.331718 30.800019 16.173841 29.865234 16.847656 C 29.874504 17.052296 29.878906 17.257708 29.878906 17.464844 C 29.878906 23.78266 25.070449 31.068359 16.277344 31.068359 C 13.577806 31.068359 11.063714 30.276821 8.9492188 28.919922 C 9.3224908 28.964486 9.7048067 28.986328 10.089844 28.986328 C 12.330189 28.986328 14.390936 28.223793 16.027344 26.941406 C 13.934953 26.902546 12.168763 25.519897 11.560547 23.621094 C 11.852177 23.67671 12.152195 23.705078 12.460938 23.705078 C 12.896243 23.705078 13.319979 23.646916 13.720703 23.537109 C 11.534192 23.098238 9.8847656 21.167845 9.8847656 18.851562 C 9.8847656 18.831598 9.8844091 18.811337 9.8847656 18.791016 C 10.52899 19.150027 11.267516 19.364072 12.050781 19.388672 C 10.768751 18.531608 9.9238281 17.068311 9.9238281 15.410156 C 9.9238281 14.534197 10.160846 13.711761 10.572266 13.005859 C 12.930261 15.898985 16.452769 17.802661 20.425781 18.001953 C 20.343783 17.651855 20.300781 17.286807 20.300781 16.912109 C 20.300781 14.272467 22.442388 12.130859 25.082031 12.130859 z "
   style="fill:#ffffff;stroke-width:0.35651577" />
<g
   id="g125">
</g>
<g
   id="g127">
</g>
<g
   id="g129">
</g>
<g
   id="g131">
</g>
<g
   id="g133">
</g>
<g
   id="g135">
</g>
<g
   id="g137">
</g>
<g
   id="g139">
</g>
<g
   id="g141">
</g>
<g
   id="g143">
</g>
<g
   id="g145">
</g>
<g
   id="g147">
</g>
<g
   id="g149">
</g>
<g
   id="g151">
</g>
<g
   id="g153">
</g>
</svg>
