<svg width="360" height="274" viewBox="0 0 360 274" fill="none" xmlns="http://www.w3.org/2000/svg">
<path d="M360 228.812H111.831V229.698H360V228.812Z" fill="#3F3D56"/>
<path d="M274.753 273.115H26.5838V274H274.753V273.115Z" fill="#3F3D56"/>
<path d="M290.281 181.597C324.303 219.238 225.679 273.483 145.989 273.483C66.2981 273.483 11.1648 231.452 1.69622 181.597C-21.2618 60.7162 197.304 -16.1153 145.989 89.7122C71.1908 243.968 263.488 151.955 290.281 181.597Z" fill="#3F3D56"/>
<path d="M105.574 64.4514C107.174 64.4514 108.472 63.1533 108.472 61.5519C108.472 59.9505 107.174 58.6523 105.574 58.6523C103.973 58.6523 102.675 59.9505 102.675 61.5519C102.675 63.1533 103.973 64.4514 105.574 64.4514Z" fill="#D0CDE1"/>
<path d="M66.2849 238.102C67.8856 238.102 69.1832 236.804 69.1832 235.203C69.1832 233.601 67.8856 232.303 66.2849 232.303C64.6842 232.303 63.3865 233.601 63.3865 235.203C63.3865 236.804 64.6842 238.102 66.2849 238.102Z" fill="#D0CDE1"/>
<path d="M110.726 105.367C111.438 105.367 112.014 104.79 112.014 104.079C112.014 103.367 111.438 102.79 110.726 102.79C110.015 102.79 109.438 103.367 109.438 104.079C109.438 104.79 110.015 105.367 110.726 105.367Z" fill="#D0CDE1"/>
<path d="M43.0981 172.379C43.8095 172.379 44.3863 171.802 44.3863 171.09C44.3863 170.379 43.8095 169.802 43.0981 169.802C42.3867 169.802 41.81 170.379 41.81 171.09C41.81 171.802 42.3867 172.379 43.0981 172.379Z" fill="#D0CDE1"/>
<path d="M212.491 220.705C213.202 220.705 213.779 220.128 213.779 219.416C213.779 218.704 213.202 218.127 212.491 218.127C211.779 218.127 211.202 218.704 211.202 219.416C211.202 220.128 211.779 220.705 212.491 220.705Z" fill="#D0CDE1"/>
<path d="M38.9116 106.656C39.623 106.656 40.1998 106.079 40.1998 105.367C40.1998 104.656 39.623 104.079 38.9116 104.079C38.2002 104.079 37.6234 104.656 37.6234 105.367C37.6234 106.079 38.2002 106.656 38.9116 106.656Z" fill="#D0CDE1"/>
<path d="M117.167 71.2173H116.523V70.5728H116.201V71.2173H115.557V71.5393H116.201V72.1839H116.523V71.5393H117.167V71.2173Z" fill="#D0CDE1"/>
<path d="M67.895 81.8492H67.251V81.2046H66.9288V81.8492H66.2849V82.1711H66.9288V82.8154H67.251V82.1711H67.895V81.8492Z" fill="#D0CDE1"/>
<path d="M35.6912 142.418H35.0472V141.773H34.725V142.418H34.0811V142.739H34.725V143.384H35.0472V142.739H35.6912V142.418Z" fill="#D0CDE1"/>
<path d="M126.184 248.412C126.896 248.412 127.472 247.835 127.472 247.123C127.472 246.411 126.896 245.834 126.184 245.834C125.473 245.834 124.896 246.411 124.896 247.123C124.896 247.835 125.473 248.412 126.184 248.412Z" fill="#D0CDE1"/>
<path d="M121.998 182.689C122.709 182.689 123.286 182.112 123.286 181.4C123.286 180.688 122.709 180.111 121.998 180.111C121.286 180.111 120.709 180.688 120.709 181.4C120.709 182.112 121.286 182.689 121.998 182.689Z" fill="#D0CDE1"/>
<path d="M274.322 206.53C275.033 206.53 275.61 205.953 275.61 205.241C275.61 204.529 275.033 203.952 274.322 203.952C273.611 203.952 273.034 204.529 273.034 205.241C273.034 205.953 273.611 206.53 274.322 206.53Z" fill="#D0CDE1"/>
<path d="M118.777 218.45H118.133V217.806H117.811V218.45H117.167V218.772H117.811V219.416H118.133V218.772H118.777V218.45Z" fill="#D0CDE1"/>
<path d="M181.253 241.324H180.609V240.68H180.287V241.324H179.643V241.646H180.287V242.29H180.609V241.646H181.253V241.324Z" fill="#D0CDE1"/>
<path d="M23.4537 183.977H22.8097V183.333H22.4876V183.977H21.8436V184.3H22.4876V184.944H22.8097V184.3H23.4537V183.977Z" fill="#D0CDE1"/>
<path d="M112.981 137.585H112.337V136.94H112.014V137.585H111.37V137.907H112.014V138.551H112.337V137.907H112.981V137.585Z" fill="#D0CDE1"/>
<path d="M73.3697 99.5681H72.7257V98.9238H72.4036V99.5681H71.7596V99.8904H72.4036V100.535H72.7257V99.8904H73.3697V99.5681Z" fill="#D0CDE1"/>
<path d="M99.7769 163.036H99.1329V162.392H98.8108V163.036H98.1668V163.359H98.8108V164.003H99.1329V163.359H99.7769V163.036Z" fill="#D0CDE1"/>
<path d="M61.1323 202.986H60.4883V202.341H60.1661V202.986H59.5221V203.308H60.1661V203.952H60.4883V203.308H61.1323V202.986Z" fill="#D0CDE1"/>
<path d="M74.3359 148.538C84.8294 148.538 93.3362 147.24 93.3362 145.639C93.3362 144.037 84.8294 142.739 74.3359 142.739C63.8423 142.739 55.3356 144.037 55.3356 145.639C55.3356 147.24 63.8423 148.538 74.3359 148.538Z" fill="#A740A8"/>
<path d="M76.2681 146.605C68.5011 146.605 56.9458 145.747 56.9458 143.383C56.9458 141.02 68.5011 140.162 76.2681 140.162C84.0351 140.162 95.5904 141.02 95.5904 143.383C95.5904 145.747 84.0351 146.605 76.2681 146.605ZM76.2681 140.806C71.2086 140.806 66.4544 141.106 62.8815 141.652C58.6958 142.29 57.5898 143.064 57.5898 143.383C57.5898 143.703 58.6958 144.476 62.8815 145.115C66.4544 145.661 71.2086 145.961 76.2681 145.961C81.3276 145.961 86.0818 145.661 89.6547 145.115C93.8405 144.476 94.9464 143.703 94.9464 143.383C94.9464 143.064 93.8405 142.29 89.6547 141.652C86.0818 141.106 81.3276 140.806 76.2681 140.806Z" fill="#D0CDE1"/>
<path d="M76.2681 96.3467C69.5095 96.3467 64.0306 97.9618 64.0306 104.723C64.0306 111.485 69.5095 138.551 76.2681 138.551C83.0267 138.551 88.5056 111.485 88.5056 104.723C88.5056 97.9618 83.0267 96.3467 76.2681 96.3467ZM76.2681 113.744C75.249 113.744 74.2528 113.442 73.4055 112.875C72.5581 112.309 71.8977 111.504 71.5077 110.562C71.1177 109.62 71.0157 108.583 71.2145 107.584C71.4133 106.584 71.9041 105.665 72.6247 104.944C73.3453 104.223 74.2634 103.732 75.2629 103.534C76.2624 103.335 77.2984 103.437 78.24 103.827C79.1815 104.217 79.9862 104.878 80.5524 105.725C81.1186 106.573 81.4208 107.57 81.4208 108.589C81.4208 109.266 81.2875 109.936 81.0285 110.562C80.7696 111.187 80.3901 111.756 79.9116 112.234C79.4331 112.713 78.8651 113.093 78.2399 113.352C77.6148 113.611 76.9448 113.744 76.2681 113.744Z" fill="#A740A8"/>
<path d="M304.993 170.066C278.2 140.423 85.9024 232.436 160.7 78.1805C194.042 9.42075 113.452 17.7722 59.2026 65.2142C111.736 29.1273 175.147 28.0873 144.92 90.4231C70.1225 244.679 262.42 152.666 289.213 182.308C301.68 196.101 296.334 212.123 280.637 226.889C307.618 209.198 321.014 187.791 304.993 170.066Z" fill="#D0CDE1"/>
<path d="M147.313 272.894L146.899 272.739C146.808 272.704 137.747 269.231 133.502 261.356C129.257 253.481 131.336 243.999 131.357 243.904L131.455 243.472L131.869 243.628C131.96 243.662 141.021 247.135 145.266 255.01C149.511 262.885 147.432 272.367 147.411 272.462L147.313 272.894ZM134.182 260.99C137.77 267.648 144.931 271.061 146.745 271.84C147.09 269.895 148.172 262.029 144.586 255.377C141.001 248.725 133.838 245.307 132.023 244.526C131.678 246.472 130.596 254.338 134.182 260.99H134.182Z" fill="#D0CDE1"/>
<path d="M136.746 258.98C144.374 263.571 147.312 272.69 147.312 272.69C147.312 272.69 137.882 274.366 130.254 269.775C122.626 265.183 119.688 256.064 119.688 256.064C119.688 256.064 129.118 254.388 136.746 258.98Z" fill="#A740A8"/>
<path d="M243.78 92.2598C243.78 92.2598 226.301 109.396 233.642 111.495C240.983 113.593 249.373 95.757 249.373 95.757L243.78 92.2598Z" fill="#FFB9B9"/>
<path d="M261.259 149.964L259.161 159.756L274.892 160.456L272.445 149.964H261.259Z" fill="#FFB9B9"/>
<path d="M310.899 210.466L308.801 220.259L324.532 220.958L322.085 210.466H310.899Z" fill="#FFB9B9"/>
<path d="M283.282 84.5654L284.68 90.161C284.68 90.161 245.877 82.4671 247.974 102.052C250.072 121.636 259.161 140.521 259.161 140.521C259.161 140.521 258.462 146.816 259.86 147.866C261.259 148.915 259.86 152.412 259.86 152.412C259.86 152.412 272.795 154.161 273.144 151.013C273.331 148.909 273.214 146.789 272.795 144.718C272.795 144.718 273.494 144.718 272.795 141.221C272.095 137.724 269.271 109.519 267.174 105.672C267.174 105.672 285.729 119.888 295.517 118.139C295.517 118.139 294.119 132.128 299.712 150.663C305.306 169.199 305.306 171.297 305.306 171.297C305.306 171.297 311.948 206.619 310.2 210.816L309.85 212.565H322.785C322.785 212.565 321.736 194.029 322.785 191.581C323.833 189.133 323.833 168.15 317.89 157.658C313.682 150.228 314.466 128.685 316.768 120.17C318.701 113.019 319.189 107.516 318.056 100.195C316.844 92.3669 313.225 88.2749 308.801 84.5654H283.282Z" fill="#2F2E41"/>
<path d="M293.595 31.9321C300.545 31.9321 306.179 26.2953 306.179 19.342C306.179 12.3887 300.545 6.75195 293.595 6.75195C286.644 6.75195 281.01 12.3887 281.01 19.342C281.01 26.2953 286.644 31.9321 293.595 31.9321Z" fill="#FFB9B9"/>
<path d="M290.274 28.26C290.274 28.26 294.119 39.4512 293.769 41.5496C293.42 43.6479 304.956 37.3529 304.956 37.3529C304.956 37.3529 300.411 26.1617 301.81 23.0142L290.274 28.26Z" fill="#FFB9B9"/>
<path d="M304.257 33.5059L292.022 38.402L292.721 42.5987C292.721 42.5987 291.672 43.9976 292.022 44.697C292.371 45.3965 287.477 48.1943 288.176 49.2434C288.875 50.2926 283.981 54.4893 284.331 55.5385C284.68 56.5876 273.144 62.8827 279.437 75.123C279.437 75.123 282.699 79.366 282.29 84.3836C282.276 84.5599 282.257 84.7372 282.233 84.9153C281.534 90.1612 308.801 84.2159 308.801 84.2159V78.2706C308.801 78.2706 311.248 77.2214 310.899 72.675C310.549 68.1286 308.452 70.2269 310.899 67.7788C313.346 65.3308 313.346 65.6805 312.996 63.5821C312.857 62.7442 312.829 59.7313 312.845 56.4141C312.877 49.4052 310.596 42.5818 306.354 37.0031L304.257 33.5059Z" fill="#D0CDE1"/>
<path d="M297.615 42.5988L274.892 66.3801L241.682 92.6094L249.023 98.5547L310.2 57.637C310.2 57.637 315.443 35.2546 297.615 42.5988Z" fill="#D0CDE1"/>
<path d="M262.307 155.21C262.307 155.21 259.86 151.014 258.112 152.412L245.877 162.205C245.877 162.205 224.203 168.5 245.178 173.396C245.178 173.396 256.714 175.145 259.161 173.396C261.608 171.647 265.453 171.997 266.502 172.696C267.551 173.396 280.835 172.347 280.835 169.549C280.835 166.751 273.508 154.523 273.508 154.523C273.508 154.523 269.299 159.407 262.307 155.21Z" fill="#2F2E41"/>
<path d="M311.948 215.712C311.948 215.712 309.501 211.515 307.753 212.914L295.517 222.707C295.517 222.707 273.843 229.002 294.818 233.898C294.818 233.898 306.354 235.646 308.801 233.898C311.248 232.149 315.094 232.499 316.143 233.198C317.191 233.898 330.475 232.849 330.475 230.051C330.475 227.253 323.149 215.025 323.149 215.025C323.149 215.025 318.939 219.909 311.948 215.712Z" fill="#2F2E41"/>
<path d="M278.513 14.3491C278.513 14.3491 280.641 -4.36338 298.839 0.949707C298.839 0.949707 311.714 -1.67011 316.262 14.4164L320.877 31.2819L318.764 30.1836L317.83 32.3339L314.459 33.2574L312.954 30.4063L312.319 33.9159L289.034 38.6256C289.034 38.6256 296.909 29.6244 296.854 16.4412L294.534 18.9896L278.513 14.3491Z" fill="#2F2E41"/>
<path d="M194.456 180.112C213.309 180.112 228.592 178.092 228.592 175.601C228.592 173.11 213.309 171.091 194.456 171.091C175.604 171.091 160.32 173.11 160.32 175.601C160.32 178.092 175.604 180.112 194.456 180.112Z" fill="#2F2E41"/>
<path d="M213.001 121.063H212.597V109.988C212.597 109.146 212.431 108.313 212.109 107.535C211.787 106.757 211.315 106.051 210.72 105.456C210.126 104.86 209.419 104.388 208.642 104.066C207.864 103.744 207.031 103.578 206.19 103.578H182.736C181.894 103.578 181.061 103.744 180.284 104.066C179.506 104.388 178.8 104.86 178.205 105.456C177.61 106.051 177.138 106.757 176.816 107.535C176.494 108.313 176.328 109.146 176.328 109.988V170.747C176.328 171.588 176.494 172.422 176.816 173.2C177.138 173.977 177.61 174.684 178.205 175.279C178.8 175.874 179.506 176.347 180.284 176.669C181.061 176.991 181.894 177.157 182.736 177.157H206.19C207.031 177.157 207.864 176.991 208.642 176.669C209.419 176.347 210.126 175.874 210.72 175.279C211.315 174.684 211.787 173.977 212.109 173.2C212.431 172.422 212.597 171.588 212.597 170.747V128.947H213.001V121.063Z" fill="#3F3D56"/>
<path d="M206.297 105.397H203.235C203.376 105.742 203.43 106.117 203.392 106.488C203.354 106.859 203.225 107.215 203.017 107.524C202.809 107.834 202.528 108.088 202.199 108.263C201.87 108.438 201.503 108.53 201.131 108.53H187.694C187.321 108.53 186.954 108.438 186.625 108.263C186.296 108.088 186.015 107.834 185.807 107.524C185.599 107.215 185.471 106.859 185.433 106.488C185.395 106.117 185.448 105.742 185.589 105.397H182.73C182.101 105.397 181.479 105.521 180.898 105.761C180.318 106.002 179.79 106.355 179.346 106.799C178.902 107.244 178.549 107.771 178.309 108.352C178.068 108.933 177.945 109.555 177.945 110.184V170.853C177.945 171.482 178.068 172.104 178.309 172.685C178.549 173.266 178.902 173.794 179.346 174.238C179.79 174.683 180.318 175.035 180.898 175.276C181.479 175.516 182.101 175.64 182.73 175.64H206.297C206.925 175.64 207.547 175.516 208.128 175.276C208.708 175.035 209.236 174.683 209.68 174.238C210.125 173.794 210.477 173.266 210.718 172.685C210.958 172.104 211.082 171.482 211.082 170.853V110.184C211.082 109.555 210.958 108.933 210.718 108.352C210.477 107.771 210.125 107.244 209.68 106.799C209.236 106.355 208.708 106.002 208.128 105.761C207.547 105.521 206.925 105.397 206.297 105.397Z" fill="#A740A8"/>
<path d="M189.304 133.718C193.039 133.718 196.067 130.689 196.067 126.953C196.067 123.216 193.039 120.187 189.304 120.187C185.569 120.187 182.541 123.216 182.541 126.953C182.541 130.689 185.569 133.718 189.304 133.718Z" fill="#D0CDE1"/>
<path d="M206.883 136.771L198.703 128.588C199.708 127.056 200.109 125.205 199.828 123.394C199.548 121.583 198.606 119.94 197.185 118.784C195.765 117.627 193.965 117.039 192.136 117.133C190.307 117.227 188.577 117.996 187.282 119.292C185.986 120.587 185.217 122.318 185.124 124.148C185.03 125.978 185.618 127.778 186.774 129.2C187.93 130.621 189.572 131.563 191.382 131.844C193.193 132.124 195.042 131.723 196.574 130.718L204.754 138.901L206.883 136.771ZM188.789 128.253C188.052 127.516 187.55 126.577 187.347 125.554C187.144 124.532 187.248 123.472 187.647 122.509C188.045 121.546 188.721 120.723 189.587 120.144C190.453 119.565 191.472 119.256 192.514 119.256C193.556 119.256 194.574 119.565 195.441 120.144C196.307 120.723 196.982 121.546 197.381 122.509C197.78 123.472 197.884 124.532 197.681 125.554C197.478 126.577 196.976 127.516 196.239 128.253C195.75 128.742 195.169 129.131 194.53 129.395C193.891 129.66 193.206 129.797 192.514 129.797C191.822 129.797 191.137 129.66 190.498 129.395C189.859 129.131 189.278 128.742 188.789 128.253Z" fill="#3F3D56"/>
<path d="M207.66 144.672H181.253V147.894H207.66V144.672Z" fill="#3F3D56"/>
</svg>
